<?xml version="1.0" encoding="ISO8859-1"?>
<svg xmlns="http://www.w3.org/2000/svg" xmlns:xlink="http://www.w3.org/1999/xlink" width="288px" height="295.2px" viewBox="0 0 288 295.2" version="1.1" id="Fig:dens">
  <metadata xmlns:gridsvg="http://www.stat.auckland.ac.nz/~paul/R/gridSVG/">
    <gridsvg:generator name="gridSVG" version="1.6-0" time="2018-01-29 16:02:29"/>
    <gridsvg:argument name="name" value="example_analysis/GEX/QC/quality_metrics/dens.svg"/>
    <gridsvg:argument name="exportCoords" value="none"/>
    <gridsvg:argument name="exportMappings" value="none"/>
    <gridsvg:argument name="exportJS" value="none"/>
    <gridsvg:argument name="res" value="72"/>
    <gridsvg:argument name="prefix" value="Fig:dens"/>
    <gridsvg:argument name="addClasses" value="FALSE"/>
    <gridsvg:argument name="indent" value="TRUE"/>
    <gridsvg:argument name="htmlWrapper" value="FALSE"/>
    <gridsvg:argument name="usePaths" value="none"/>
    <gridsvg:argument name="uniqueNames" value="TRUE"/>
    <gridsvg:separator name="id.sep" value="."/>
    <gridsvg:separator name="gPath.sep" value="::"/>
    <gridsvg:separator name="vpPath.sep" value="::"/>
  </metadata>
  <g transform="translate(0, 295.2) scale(1, -1)">
    <g id="Fig:densgridSVG" fill="none" stroke="rgb(0,0,0)" stroke-dasharray="none" stroke-width="0.75" font-size="12" font-family="Helvetica, Arial, FreeSans, Liberation Sans, Nimbus Sans L, sans-serif" opacity="1" stroke-linecap="round" stroke-linejoin="round" stroke-miterlimit="10" stroke-opacity="1" fill-opacity="0" font-weight="normal" font-style="normal">
      <g id="Fig:densplot_01.background.1">
        <rect id="Fig:densplot_01.background.1.1" x="0" y="0" width="288" height="295.2" transform="" fill="none" stroke="none" stroke-opacity="0" fill-opacity="0"/>
      </g>
      <g id="Fig:densplot_01.toplevel.vp.1" font-size="12">
        <g id="Fig:densplot_01.main.vp.1">
          <g id="Fig:densGRID.VP.3116.1">
            <g id="Fig:densplot_01.key.frame.1">
              <g id="Fig:densGRID.VP.3117.1">
                <g id="Fig:densGRID.cellGrob.36438.1">
                  <g id="Fig:densplot_01.key.background.1">
                    <rect id="Fig:densplot_01.key.background.1.1" x="95.97" y="254.71" width="96.06" height="34.49" transform="" fill="none" opacity="1" stroke="none" stroke-opacity="0" fill-opacity="0"/>
                  </g>
                </g>
              </g>
              <g id="Fig:densGRID.VP.3118.1">
                <g id="Fig:densGRID.cellGrob.36439.1">
                  <g id="Fig:densplot_01.key.rect.1.1.1">
                    <rect id="Fig:densplot_01.key.rect.1.1.1.1" x="102.64" y="277.7" width="33.36" height="11.5" transform="" opacity="1" fill="rgb(228,26,28)" stroke="rgb(0,0,0)" stroke-opacity="1" fill-opacity="1"/>
                  </g>
                </g>
              </g>
              <g id="Fig:densGRID.VP.3119.1">
                <g id="Fig:densGRID.cellGrob.36440.1">
                  <g id="Fig:densplot_01.key.rect.1.2.1">
                    <rect id="Fig:densplot_01.key.rect.1.2.1.1" x="102.64" y="266.21" width="33.36" height="11.5" transform="" opacity="1" fill="rgb(55,126,184)" stroke="rgb(0,0,0)" stroke-opacity="1" fill-opacity="1"/>
                  </g>
                </g>
              </g>
              <g id="Fig:densGRID.VP.3120.1">
                <g id="Fig:densGRID.cellGrob.36441.1">
                  <g id="Fig:densplot_01.key.rect.1.3.1">
                    <rect id="Fig:densplot_01.key.rect.1.3.1.1" x="102.64" y="254.71" width="33.36" height="11.5" transform="" opacity="1" fill="rgb(77,175,74)" stroke="rgb(0,0,0)" stroke-opacity="1" fill-opacity="1"/>
                  </g>
                </g>
              </g>
              <g id="Fig:densGRID.VP.3121.1">
                <g id="Fig:densGRID.cellGrob.36442.1">
                  <g id="Fig:densplot_01.key.text.2.1.1">
                    <g id="Fig:densplot_01.key.text.2.1.1.1" transform="translate(149.35, 283.45)" stroke-width="0.1">
                      <g id="Fig:densplot_01.key.text.2.1.1.1.scale" transform="scale(1, -1)">
                        <text x="0" y="0" id="Fig:densplot_01.key.text.2.1.1.1.text" text-anchor="start" stroke="rgb(0,0,0)" opacity="1" fill="rgb(0,0,0)" stroke-opacity="1" fill-opacity="1" font-size="12" font-weight="normal" font-style="normal">
                          <tspan id="Fig:densplot_01.key.text.2.1.1.1.tspan.1" dy="4.31" x="0">case1</tspan>
                        </text>
                      </g>
                    </g>
                  </g>
                </g>
              </g>
              <g id="Fig:densGRID.VP.3122.1">
                <g id="Fig:densGRID.cellGrob.36443.1">
                  <g id="Fig:densplot_01.key.text.2.2.1">
                    <g id="Fig:densplot_01.key.text.2.2.1.1" transform="translate(149.35, 271.96)" stroke-width="0.1">
                      <g id="Fig:densplot_01.key.text.2.2.1.1.scale" transform="scale(1, -1)">
                        <text x="0" y="0" id="Fig:densplot_01.key.text.2.2.1.1.text" text-anchor="start" stroke="rgb(0,0,0)" opacity="1" fill="rgb(0,0,0)" stroke-opacity="1" fill-opacity="1" font-size="12" font-weight="normal" font-style="normal">
                          <tspan id="Fig:densplot_01.key.text.2.2.1.1.tspan.1" dy="4.31" x="0">case2</tspan>
                        </text>
                      </g>
                    </g>
                  </g>
                </g>
              </g>
              <g id="Fig:densGRID.VP.3123.1">
                <g id="Fig:densGRID.cellGrob.36444.1">
                  <g id="Fig:densplot_01.key.text.2.3.1">
                    <g id="Fig:densplot_01.key.text.2.3.1.1" transform="translate(149.35, 260.46)" stroke-width="0.1">
                      <g id="Fig:densplot_01.key.text.2.3.1.1.scale" transform="scale(1, -1)">
                        <text x="0" y="0" id="Fig:densplot_01.key.text.2.3.1.1.text" text-anchor="start" stroke="rgb(0,0,0)" opacity="1" fill="rgb(0,0,0)" stroke-opacity="1" fill-opacity="1" font-size="12" font-weight="normal" font-style="normal">
                          <tspan id="Fig:densplot_01.key.text.2.3.1.1.tspan.1" dy="4.31" x="0">control</tspan>
                        </text>
                      </g>
                    </g>
                  </g>
                </g>
              </g>
            </g>
          </g>
        </g>
        <g id="Fig:densplot_01.ylab.vp.1">
          <g id="Fig:densplot_01.ylab.1">
            <g id="Fig:densplot_01.ylab.1.1" transform="translate(10.31, 142.45)" stroke-width="0.1">
              <g id="Fig:densplot_01.ylab.1.1.scale" transform="scale(1, -1)">
                <text x="0" y="0" id="Fig:densplot_01.ylab.1.1.text" transform="rotate(-90)" text-anchor="middle" opacity="1" stroke="rgb(0,0,0)" fill="rgb(0,0,0)" stroke-opacity="1" fill-opacity="1" font-size="12" font-weight="normal" font-style="normal">
                  <tspan id="Fig:densplot_01.ylab.1.1.tspan.1" dy="4.31" x="0">Density</tspan>
                </text>
              </g>
            </g>
          </g>
        </g>
        <g id="Fig:densplot_01.figure.vp.1"/>
        <defs>
          <clipPath id="Fig:densplot_01.panel.1.1.vp.1.clipPath">
            <rect x="44.8" y="42.19" width="231.2" height="200.52" fill="none" stroke="none"/>
          </clipPath>
        </defs>
        <g id="Fig:densplot_01.panel.1.1.vp.1" clip-path="url(#Fig:densplot_01.panel.1.1.vp.1.clipPath)"/>
        <g id="Fig:densplot_01.strip.1.1.off.vp.1"/>
        <g id="Fig:densplot_01.strip.left.1.1.off.vp.1">
          <g id="Fig:densplot_01.ticks.left.panel.1.1.1">
            <polyline id="Fig:densplot_01.ticks.left.panel.1.1.1.1" points="44.8,54.49 39.13,54.49" stroke="rgb(0,0,0)" opacity="1" stroke-dasharray="none" stroke-width="0.75" stroke-opacity="1" fill="none"/>
            <polyline id="Fig:densplot_01.ticks.left.panel.1.1.1.2" points="44.8,88.95 39.13,88.95" stroke="rgb(0,0,0)" opacity="1" stroke-dasharray="none" stroke-width="0.75" stroke-opacity="1" fill="none"/>
            <polyline id="Fig:densplot_01.ticks.left.panel.1.1.1.3" points="44.8,123.4 39.13,123.4" stroke="rgb(0,0,0)" opacity="1" stroke-dasharray="none" stroke-width="0.75" stroke-opacity="1" fill="none"/>
            <polyline id="Fig:densplot_01.ticks.left.panel.1.1.1.4" points="44.8,157.85 39.13,157.85" stroke="rgb(0,0,0)" opacity="1" stroke-dasharray="none" stroke-width="0.75" stroke-opacity="1" fill="none"/>
            <polyline id="Fig:densplot_01.ticks.left.panel.1.1.1.5" points="44.8,192.31 39.13,192.31" stroke="rgb(0,0,0)" opacity="1" stroke-dasharray="none" stroke-width="0.75" stroke-opacity="1" fill="none"/>
            <polyline id="Fig:densplot_01.ticks.left.panel.1.1.1.6" points="44.8,226.76 39.13,226.76" stroke="rgb(0,0,0)" opacity="1" stroke-dasharray="none" stroke-width="0.75" stroke-opacity="1" fill="none"/>
          </g>
          <g id="Fig:densplot_01.ticklabels.left.panel.1.1.1">
            <g id="Fig:densplot_01.ticklabels.left.panel.1.1.1.1" transform="translate(33.47, 54.49)" stroke-width="0.1">
              <g id="Fig:densplot_01.ticklabels.left.panel.1.1.1.1.scale" transform="scale(1, -1)">
                <text x="0" y="0" id="Fig:densplot_01.ticklabels.left.panel.1.1.1.1.text" transform="rotate(-90)" text-anchor="middle" stroke="rgb(0,0,0)" opacity="1" fill="rgb(0,0,0)" stroke-opacity="1" fill-opacity="1" font-size="9.6" font-weight="normal" font-style="normal">
                  <tspan id="Fig:densplot_01.ticklabels.left.panel.1.1.1.1.tspan.1" dy="0" x="0">0.00</tspan>
                </text>
              </g>
            </g>
            <g id="Fig:densplot_01.ticklabels.left.panel.1.1.1.2" transform="translate(33.47, 88.95)" stroke-width="0.1">
              <g id="Fig:densplot_01.ticklabels.left.panel.1.1.1.2.scale" transform="scale(1, -1)">
                <text x="0" y="0" id="Fig:densplot_01.ticklabels.left.panel.1.1.1.2.text" transform="rotate(-90)" text-anchor="middle" stroke="rgb(0,0,0)" opacity="1" fill="rgb(0,0,0)" stroke-opacity="1" fill-opacity="1" font-size="9.6" font-weight="normal" font-style="normal">
                  <tspan id="Fig:densplot_01.ticklabels.left.panel.1.1.1.2.tspan.1" dy="0" x="0">0.05</tspan>
                </text>
              </g>
            </g>
            <g id="Fig:densplot_01.ticklabels.left.panel.1.1.1.3" transform="translate(33.47, 123.4)" stroke-width="0.1">
              <g id="Fig:densplot_01.ticklabels.left.panel.1.1.1.3.scale" transform="scale(1, -1)">
                <text x="0" y="0" id="Fig:densplot_01.ticklabels.left.panel.1.1.1.3.text" transform="rotate(-90)" text-anchor="middle" stroke="rgb(0,0,0)" opacity="1" fill="rgb(0,0,0)" stroke-opacity="1" fill-opacity="1" font-size="9.6" font-weight="normal" font-style="normal">
                  <tspan id="Fig:densplot_01.ticklabels.left.panel.1.1.1.3.tspan.1" dy="0" x="0">0.10</tspan>
                </text>
              </g>
            </g>
            <g id="Fig:densplot_01.ticklabels.left.panel.1.1.1.4" transform="translate(33.47, 157.85)" stroke-width="0.1">
              <g id="Fig:densplot_01.ticklabels.left.panel.1.1.1.4.scale" transform="scale(1, -1)">
                <text x="0" y="0" id="Fig:densplot_01.ticklabels.left.panel.1.1.1.4.text" transform="rotate(-90)" text-anchor="middle" stroke="rgb(0,0,0)" opacity="1" fill="rgb(0,0,0)" stroke-opacity="1" fill-opacity="1" font-size="9.6" font-weight="normal" font-style="normal">
                  <tspan id="Fig:densplot_01.ticklabels.left.panel.1.1.1.4.tspan.1" dy="0" x="0">0.15</tspan>
                </text>
              </g>
            </g>
            <g id="Fig:densplot_01.ticklabels.left.panel.1.1.1.5" transform="translate(33.47, 192.31)" stroke-width="0.1">
              <g id="Fig:densplot_01.ticklabels.left.panel.1.1.1.5.scale" transform="scale(1, -1)">
                <text x="0" y="0" id="Fig:densplot_01.ticklabels.left.panel.1.1.1.5.text" transform="rotate(-90)" text-anchor="middle" stroke="rgb(0,0,0)" opacity="1" fill="rgb(0,0,0)" stroke-opacity="1" fill-opacity="1" font-size="9.6" font-weight="normal" font-style="normal">
                  <tspan id="Fig:densplot_01.ticklabels.left.panel.1.1.1.5.tspan.1" dy="0" x="0">0.20</tspan>
                </text>
              </g>
            </g>
            <g id="Fig:densplot_01.ticklabels.left.panel.1.1.1.6" transform="translate(33.47, 226.76)" stroke-width="0.1">
              <g id="Fig:densplot_01.ticklabels.left.panel.1.1.1.6.scale" transform="scale(1, -1)">
                <text x="0" y="0" id="Fig:densplot_01.ticklabels.left.panel.1.1.1.6.text" transform="rotate(-90)" text-anchor="middle" stroke="rgb(0,0,0)" opacity="1" fill="rgb(0,0,0)" stroke-opacity="1" fill-opacity="1" font-size="9.6" font-weight="normal" font-style="normal">
                  <tspan id="Fig:densplot_01.ticklabels.left.panel.1.1.1.6.tspan.1" dy="0" x="0">0.25</tspan>
                </text>
              </g>
            </g>
          </g>
        </g>
        <g id="Fig:densplot_01.panel.1.1.off.vp.1">
          <g id="Fig:densplot_01.ticks.bottom.panel.1.1.1">
            <polyline id="Fig:densplot_01.ticks.bottom.panel.1.1.1.1" points="62.41,42.19 62.41,36.52" stroke="rgb(0,0,0)" opacity="1" stroke-dasharray="none" stroke-width="0.75" stroke-opacity="1" fill="none"/>
            <polyline id="Fig:densplot_01.ticks.bottom.panel.1.1.1.2" points="112.47,42.19 112.47,36.52" stroke="rgb(0,0,0)" opacity="1" stroke-dasharray="none" stroke-width="0.75" stroke-opacity="1" fill="none"/>
            <polyline id="Fig:densplot_01.ticks.bottom.panel.1.1.1.3" points="162.54,42.19 162.54,36.52" stroke="rgb(0,0,0)" opacity="1" stroke-dasharray="none" stroke-width="0.75" stroke-opacity="1" fill="none"/>
            <polyline id="Fig:densplot_01.ticks.bottom.panel.1.1.1.4" points="212.61,42.19 212.61,36.52" stroke="rgb(0,0,0)" opacity="1" stroke-dasharray="none" stroke-width="0.75" stroke-opacity="1" fill="none"/>
            <polyline id="Fig:densplot_01.ticks.bottom.panel.1.1.1.5" points="262.68,42.19 262.68,36.52" stroke="rgb(0,0,0)" opacity="1" stroke-dasharray="none" stroke-width="0.75" stroke-opacity="1" fill="none"/>
          </g>
          <g id="Fig:densplot_01.ticklabels.bottom.panel.1.1.1">
            <g id="Fig:densplot_01.ticklabels.bottom.panel.1.1.1.1" transform="translate(62.41, 30.85)" stroke-width="0.1">
              <g id="Fig:densplot_01.ticklabels.bottom.panel.1.1.1.1.scale" transform="scale(1, -1)">
                <text x="0" y="0" id="Fig:densplot_01.ticklabels.bottom.panel.1.1.1.1.text" text-anchor="middle" stroke="rgb(0,0,0)" opacity="1" fill="rgb(0,0,0)" stroke-opacity="1" fill-opacity="1" font-size="9.6" font-weight="normal" font-style="normal">
                  <tspan id="Fig:densplot_01.ticklabels.bottom.panel.1.1.1.1.tspan.1" dy="7.18" x="0">4</tspan>
                </text>
              </g>
            </g>
            <g id="Fig:densplot_01.ticklabels.bottom.panel.1.1.1.2" transform="translate(112.47, 30.85)" stroke-width="0.1">
              <g id="Fig:densplot_01.ticklabels.bottom.panel.1.1.1.2.scale" transform="scale(1, -1)">
                <text x="0" y="0" id="Fig:densplot_01.ticklabels.bottom.panel.1.1.1.2.text" text-anchor="middle" stroke="rgb(0,0,0)" opacity="1" fill="rgb(0,0,0)" stroke-opacity="1" fill-opacity="1" font-size="9.6" font-weight="normal" font-style="normal">
                  <tspan id="Fig:densplot_01.ticklabels.bottom.panel.1.1.1.2.tspan.1" dy="7.18" x="0">6</tspan>
                </text>
              </g>
            </g>
            <g id="Fig:densplot_01.ticklabels.bottom.panel.1.1.1.3" transform="translate(162.54, 30.85)" stroke-width="0.1">
              <g id="Fig:densplot_01.ticklabels.bottom.panel.1.1.1.3.scale" transform="scale(1, -1)">
                <text x="0" y="0" id="Fig:densplot_01.ticklabels.bottom.panel.1.1.1.3.text" text-anchor="middle" stroke="rgb(0,0,0)" opacity="1" fill="rgb(0,0,0)" stroke-opacity="1" fill-opacity="1" font-size="9.6" font-weight="normal" font-style="normal">
                  <tspan id="Fig:densplot_01.ticklabels.bottom.panel.1.1.1.3.tspan.1" dy="7.18" x="0">8</tspan>
                </text>
              </g>
            </g>
            <g id="Fig:densplot_01.ticklabels.bottom.panel.1.1.1.4" transform="translate(212.61, 30.85)" stroke-width="0.1">
              <g id="Fig:densplot_01.ticklabels.bottom.panel.1.1.1.4.scale" transform="scale(1, -1)">
                <text x="0" y="0" id="Fig:densplot_01.ticklabels.bottom.panel.1.1.1.4.text" text-anchor="middle" stroke="rgb(0,0,0)" opacity="1" fill="rgb(0,0,0)" stroke-opacity="1" fill-opacity="1" font-size="9.6" font-weight="normal" font-style="normal">
                  <tspan id="Fig:densplot_01.ticklabels.bottom.panel.1.1.1.4.tspan.1" dy="7.18" x="0">10</tspan>
                </text>
              </g>
            </g>
            <g id="Fig:densplot_01.ticklabels.bottom.panel.1.1.1.5" transform="translate(262.68, 30.85)" stroke-width="0.1">
              <g id="Fig:densplot_01.ticklabels.bottom.panel.1.1.1.5.scale" transform="scale(1, -1)">
                <text x="0" y="0" id="Fig:densplot_01.ticklabels.bottom.panel.1.1.1.5.text" text-anchor="middle" stroke="rgb(0,0,0)" opacity="1" fill="rgb(0,0,0)" stroke-opacity="1" fill-opacity="1" font-size="9.6" font-weight="normal" font-style="normal">
                  <tspan id="Fig:densplot_01.ticklabels.bottom.panel.1.1.1.5.tspan.1" dy="7.18" x="0">12</tspan>
                </text>
              </g>
            </g>
          </g>
        </g>
        <defs>
          <clipPath id="Fig:densplot_01.panel.1.1.vp.2.clipPath">
            <rect x="44.8" y="42.19" width="231.2" height="200.52" fill="none" stroke="none"/>
          </clipPath>
        </defs>
        <g id="Fig:densplot_01.panel.1.1.vp.2" clip-path="url(#Fig:densplot_01.panel.1.1.vp.2.clipPath)">
          <g id="Fig:densplot_01.xyplot.lines.group.1.panel.1.1.1">
            <polyline id="Fig:densplot_01.xyplot.lines.group.1.panel.1.1.1.1" points="60.09,54.52 60.48,54.53 60.88,54.55 61.27,54.57 61.67,54.61 62.06,54.66 62.46,54.72 62.85,54.81 63.25,54.92 63.64,55.07 64.03,55.27 64.43,55.53 64.82,55.86 65.22,56.28 65.61,56.8 66.01,57.45 66.4,58.23 66.8,59.17 67.19,60.34 67.58,61.72 67.98,63.33 68.37,65.21 68.77,67.36 69.16,69.8 69.56,72.56 69.95,75.63 70.35,79.08 70.74,82.84 71.13,86.91 71.53,91.28 71.92,95.91 72.32,100.78 72.71,105.86 73.11,111.11 73.5,116.49 73.9,121.94 74.29,127.41 74.68,132.85 75.08,138.21 75.47,143.46 75.87,148.55 76.26,153.45 76.66,158.09 77.05,162.48 77.44,166.6 77.84,170.45 78.23,174.02 78.63,177.32 79.02,180.35 79.42,183.12 79.81,185.61 80.21,187.88 80.6,189.95 80.99,191.84 81.39,193.57 81.78,195.16 82.18,196.61 82.57,197.95 82.97,199.19 83.36,200.34 83.76,201.42 84.15,202.43 84.54,203.38 84.94,204.28 85.33,205.12 85.73,205.91 86.12,206.65 86.52,207.34 86.91,207.99 87.31,208.59 87.7,209.16 88.09,209.68 88.49,210.16 88.88,210.6 89.28,211 89.67,211.36 90.07,211.69 90.46,211.98 90.86,212.23 91.25,212.46 91.64,212.65 92.04,212.81 92.43,212.95 92.83,213.07 93.22,213.16 93.62,213.25 94.01,213.33 94.41,213.4 94.8,213.47 95.19,213.55 95.59,213.65 95.98,213.75 96.38,213.88 96.77,214.03 97.17,214.2 97.56,214.39 97.95,214.6 98.35,214.83 98.74,215.07 99.14,215.33 99.53,215.59 99.93,215.86 100.32,216.13 100.72,216.39 101.11,216.64 101.5,216.87 101.9,217.08 102.29,217.27 102.69,217.44 103.08,217.59 103.48,217.71 103.87,217.8 104.27,217.86 104.66,217.9 105.05,217.91 105.45,217.9 105.84,217.87 106.24,217.81 106.63,217.74 107.03,217.65 107.42,217.54 107.82,217.42 108.21,217.29 108.6,217.16 109,217.03 109.39,216.9 109.79,216.78 110.18,216.68 110.58,216.59 110.97,216.53 111.37,216.51 111.76,216.52 112.15,216.57 112.55,216.66 112.94,216.8 113.34,216.98 113.73,217.2 114.13,217.47 114.52,217.77 114.91,218.11 115.31,218.47 115.7,218.86 116.1,219.25 116.49,219.66 116.89,220.06 117.28,220.46 117.68,220.84 118.07,221.21 118.46,221.56 118.86,221.88 119.25,222.17 119.65,222.44 120.04,222.68 120.44,222.89 120.83,223.07 121.23,223.22 121.62,223.34 122.01,223.43 122.41,223.5 122.8,223.53 123.2,223.54 123.59,223.52 123.99,223.48 124.38,223.41 124.78,223.32 125.17,223.22 125.56,223.09 125.96,222.96 126.35,222.82 126.75,222.68 127.14,222.55 127.54,222.43 127.93,222.32 128.33,222.23 128.72,222.16 129.11,222.12 129.51,222.11 129.9,222.13 130.3,222.19 130.69,222.27 131.09,222.39 131.48,222.53 131.88,222.7 132.27,222.89 132.66,223.1 133.06,223.34 133.45,223.58 133.85,223.84 134.24,224.11 134.64,224.38 135.03,224.65 135.42,224.93 135.82,225.21 136.21,225.49 136.61,225.76 137,226.02 137.4,226.28 137.79,226.53 138.19,226.76 138.58,226.98 138.97,227.19 139.37,227.37 139.76,227.52 140.16,227.66 140.55,227.77 140.95,227.85 141.34,227.9 141.74,227.92 142.13,227.92 142.52,227.88 142.92,227.82 143.31,227.73 143.71,227.61 144.1,227.47 144.5,227.31 144.89,227.13 145.29,226.94 145.68,226.74 146.07,226.52 146.47,226.31 146.86,226.09 147.26,225.88 147.65,225.68 148.05,225.49 148.44,225.32 148.84,225.17 149.23,225.03 149.62,224.93 150.02,224.84 150.41,224.78 150.81,224.74 151.2,224.72 151.6,224.71 151.99,224.73 152.39,224.75 152.78,224.78 153.17,224.82 153.57,224.85 153.96,224.89 154.36,224.92 154.75,224.94 155.15,224.95 155.54,224.96 155.93,224.96 156.33,224.95 156.72,224.92 157.12,224.89 157.51,224.83 157.91,224.75 158.3,224.64 158.7,224.49 159.09,224.29 159.48,224.02 159.88,223.68 160.27,223.25 160.67,222.71 161.06,222.04 161.46,221.2 161.85,220.2 162.25,219.01 162.64,217.63 163.03,216.02 163.43,214.19 163.82,212.13 164.22,209.79 164.61,207.19 165.01,204.34 165.4,201.25 165.8,197.93 166.19,194.39 166.58,190.64 166.98,186.71 167.37,182.6 167.77,178.35 168.16,174 168.56,169.58 168.95,165.12 169.35,160.65 169.74,156.19 170.13,151.78 170.53,147.45 170.92,143.24 171.32,139.15 171.71,135.2 172.11,131.42 172.5,127.81 172.89,124.39 173.29,121.16 173.68,118.15 174.08,115.35 174.47,112.75 174.87,110.35 175.26,108.13 175.66,106.09 176.05,104.23 176.44,102.53 176.84,101 177.23,99.61 177.63,98.34 178.02,97.18 178.42,96.12 178.81,95.15 179.21,94.24 179.6,93.4 179.99,92.62 180.39,91.89 180.78,91.2 181.18,90.54 181.57,89.9 181.97,89.3 182.36,88.73 182.76,88.18 183.15,87.65 183.54,87.16 183.94,86.69 184.33,86.25 184.73,85.83 185.12,85.44 185.52,85.06 185.91,84.71 186.31,84.38 186.7,84.07 187.09,83.77 187.49,83.48 187.88,83.2 188.28,82.92 188.67,82.64 189.07,82.36 189.46,82.09 189.86,81.81 190.25,81.52 190.64,81.24 191.04,80.95 191.43,80.66 191.83,80.37 192.22,80.08 192.62,79.79 193.01,79.51 193.4,79.23 193.8,78.96 194.19,78.7 194.59,78.44 194.98,78.19 195.38,77.96 195.77,77.73 196.17,77.5 196.56,77.29 196.95,77.08 197.35,76.88 197.74,76.68 198.14,76.49 198.53,76.3 198.93,76.11 199.32,75.93 199.72,75.74 200.11,75.55 200.5,75.36 200.9,75.17 201.29,74.97 201.69,74.77 202.08,74.57 202.48,74.36 202.87,74.15 203.27,73.94 203.66,73.73 204.05,73.51 204.45,73.29 204.84,73.08 205.24,72.87 205.63,72.66 206.03,72.46 206.42,72.26 206.82,72.07 207.21,71.9 207.6,71.73 208,71.57 208.39,71.43 208.79,71.3 209.18,71.18 209.58,71.07 209.97,70.97 210.37,70.89 210.76,70.82 211.15,70.76 211.55,70.71 211.94,70.66 212.34,70.62 212.73,70.59 213.13,70.56 213.52,70.54 213.91,70.51 214.31,70.49 214.7,70.47 215.1,70.44 215.49,70.41 215.89,70.38 216.28,70.34 216.68,70.3 217.07,70.25 217.46,70.18 217.86,70.11 218.25,70.03 218.65,69.93 219.04,69.82 219.44,69.69 219.83,69.56 220.23,69.4 220.62,69.24 221.01,69.06 221.41,68.87 221.8,68.67 222.2,68.46 222.59,68.25 222.99,68.03 223.38,67.81 223.78,67.59 224.17,67.38 224.56,67.16 224.96,66.96 225.35,66.76 225.75,66.57 226.14,66.38 226.54,66.21 226.93,66.06 227.33,65.91 227.72,65.78 228.11,65.67 228.51,65.57 228.9,65.48 229.3,65.41 229.69,65.35 230.09,65.31 230.48,65.28 230.87,65.27 231.27,65.27 231.66,65.28 232.06,65.3 232.45,65.33 232.85,65.36 233.24,65.41 233.64,65.45 234.03,65.5 234.42,65.54 234.82,65.59 235.21,65.62 235.61,65.65 236,65.66 236.4,65.66 236.79,65.64 237.19,65.61 237.58,65.56 237.97,65.49 238.37,65.4 238.76,65.29 239.16,65.16 239.55,65 239.95,64.84 240.34,64.66 240.74,64.46 241.13,64.26 241.52,64.05 241.92,63.83 242.31,63.6 242.71,63.38 243.1,63.15 243.5,62.93 243.89,62.7 244.29,62.48 244.68,62.25 245.07,62.02 245.47,61.79 245.86,61.56 246.26,61.32 246.65,61.07 247.05,60.81 247.44,60.55 247.84,60.27 248.23,59.99 248.62,59.69 249.02,59.39 249.41,59.08 249.81,58.77 250.2,58.45 250.6,58.13 250.99,57.82 251.38,57.51 251.78,57.21 252.17,56.92 252.57,56.65 252.96,56.39 253.36,56.14 253.75,55.92 254.15,55.72 254.54,55.53 254.93,55.36 255.33,55.22 255.72,55.09 256.12,54.99 256.51,54.89 256.91,54.81 257.3,54.75 257.7,54.69 258.09,54.65 258.48,54.61 258.88,54.58 259.27,54.56 259.67,54.54 260.06,54.53 260.46,54.52 260.85,54.51 261.25,54.51 261.64,54.5" stroke-dasharray="none" stroke="rgb(228,26,28)" stroke-width="0.75" opacity="1" stroke-opacity="1" fill="none" class="aqm1" onclick="plotObjRespond('click', 1, 'dens')" onmouseover="plotObjRespond('show', 1, 'dens')" onmouseout="plotObjRespond('hide', 1, 'dens')"/>
          </g>
          <g id="Fig:densplot_01.xyplot.lines.group.2.panel.1.1.1">
            <polyline id="Fig:densplot_01.xyplot.lines.group.2.panel.1.1.1.1" points="59.97,54.51 60.36,54.52 60.76,54.53 61.15,54.55 61.54,54.58 61.94,54.62 62.33,54.67 62.73,54.74 63.12,54.83 63.52,54.96 63.91,55.12 64.31,55.34 64.7,55.62 65.09,55.97 65.49,56.41 65.88,56.97 66.28,57.64 66.67,58.48 67.07,59.5 67.46,60.73 67.86,62.17 68.25,63.86 68.64,65.82 69.04,68.06 69.43,70.6 69.83,73.48 70.22,76.71 70.62,80.26 71.01,84.14 71.41,88.31 71.8,92.78 72.19,97.51 72.59,102.47 72.98,107.65 73.38,112.97 73.77,118.39 74.17,123.85 74.56,129.31 74.95,134.71 75.35,140.01 75.74,145.17 76.14,150.12 76.53,154.83 76.93,159.28 77.32,163.44 77.72,167.32 78.11,170.9 78.5,174.17 78.9,177.14 79.29,179.79 79.69,182.15 80.08,184.25 80.48,186.12 80.87,187.77 81.27,189.22 81.66,190.5 82.05,191.64 82.45,192.62 82.84,193.5 83.24,194.29 83.63,195.01 84.03,195.67 84.42,196.28 84.81,196.85 85.21,197.39 85.6,197.91 86,198.4 86.39,198.88 86.79,199.36 87.18,199.82 87.58,200.27 87.97,200.72 88.36,201.17 88.76,201.62 89.15,202.06 89.55,202.51 89.94,202.96 90.34,203.41 90.73,203.87 91.13,204.34 91.52,204.81 91.91,205.29 92.31,205.77 92.7,206.27 93.1,206.76 93.49,207.26 93.89,207.77 94.28,208.27 94.68,208.78 95.07,209.29 95.46,209.79 95.86,210.29 96.25,210.79 96.65,211.29 97.04,211.79 97.44,212.28 97.83,212.77 98.22,213.25 98.62,213.74 99.01,214.22 99.41,214.69 99.8,215.15 100.2,215.61 100.59,216.05 100.99,216.47 101.38,216.87 101.77,217.25 102.17,217.59 102.56,217.89 102.96,218.16 103.35,218.38 103.75,218.56 104.14,218.68 104.54,218.75 104.93,218.77 105.32,218.74 105.72,218.66 106.11,218.54 106.51,218.37 106.9,218.18 107.3,217.95 107.69,217.7 108.09,217.44 108.48,217.16 108.87,216.89 109.27,216.62 109.66,216.37 110.06,216.13 110.45,215.92 110.85,215.74 111.24,215.6 111.63,215.49 112.03,215.42 112.42,215.38 112.82,215.38 113.21,215.42 113.61,215.49 114,215.6 114.4,215.73 114.79,215.89 115.18,216.07 115.58,216.26 115.97,216.46 116.37,216.67 116.76,216.89 117.16,217.13 117.55,217.36 117.95,217.61 118.34,217.87 118.73,218.13 119.13,218.41 119.52,218.7 119.92,219.01 120.31,219.33 120.71,219.67 121.1,220.03 121.49,220.4 121.89,220.79 122.28,221.19 122.68,221.59 123.07,222.01 123.47,222.43 123.86,222.85 124.26,223.26 124.65,223.67 125.04,224.06 125.44,224.43 125.83,224.79 126.23,225.12 126.62,225.42 127.02,225.68 127.41,225.91 127.81,226.1 128.2,226.25 128.59,226.36 128.99,226.43 129.38,226.46 129.78,226.44 130.17,226.39 130.57,226.32 130.96,226.22 131.36,226.11 131.75,225.99 132.14,225.86 132.54,225.75 132.93,225.65 133.33,225.57 133.72,225.51 134.12,225.47 134.51,225.47 134.9,225.49 135.3,225.54 135.69,225.62 136.09,225.72 136.48,225.84 136.88,225.97 137.27,226.12 137.67,226.27 138.06,226.43 138.45,226.58 138.85,226.74 139.24,226.89 139.64,227.03 140.03,227.17 140.43,227.3 140.82,227.43 141.22,227.55 141.61,227.66 142,227.76 142.4,227.85 142.79,227.94 143.19,228.02 143.58,228.09 143.98,228.15 144.37,228.21 144.76,228.25 145.16,228.28 145.55,228.3 145.95,228.31 146.34,228.31 146.74,228.3 147.13,228.27 147.53,228.24 147.92,228.2 148.31,228.16 148.71,228.11 149.1,228.06 149.5,228.01 149.89,227.96 150.29,227.93 150.68,227.9 151.08,227.89 151.47,227.89 151.86,227.92 152.26,227.96 152.65,228.03 153.05,228.12 153.44,228.24 153.84,228.37 154.23,228.52 154.63,228.69 155.02,228.87 155.41,229.05 155.81,229.23 156.2,229.4 156.6,229.55 156.99,229.68 157.39,229.77 157.78,229.81 158.17,229.78 158.57,229.69 158.96,229.51 159.36,229.25 159.75,228.87 160.15,228.38 160.54,227.76 160.94,226.99 161.33,226.04 161.72,224.93 162.12,223.64 162.51,222.15 162.91,220.46 163.3,218.56 163.7,216.45 164.09,214.09 164.49,211.49 164.88,208.67 165.27,205.62 165.67,202.36 166.06,198.89 166.46,195.23 166.85,191.38 167.25,187.36 167.64,183.2 168.03,178.92 168.43,174.56 168.82,170.14 169.22,165.68 169.61,161.22 170.01,156.78 170.4,152.39 170.8,148.09 171.19,143.89 171.58,139.81 171.98,135.87 172.37,132.09 172.77,128.48 173.16,125.05 173.56,121.82 173.95,118.8 174.35,115.97 174.74,113.33 175.13,110.88 175.53,108.61 175.92,106.52 176.32,104.6 176.71,102.86 177.11,101.27 177.5,99.82 177.9,98.5 178.29,97.29 178.68,96.2 179.08,95.2 179.47,94.29 179.87,93.47 180.26,92.71 180.66,92.02 181.05,91.38 181.44,90.77 181.84,90.21 182.23,89.67 182.63,89.16 183.02,88.67 183.42,88.2 183.81,87.74 184.21,87.3 184.6,86.86 184.99,86.43 185.39,86.01 185.78,85.59 186.18,85.19 186.57,84.79 186.97,84.41 187.36,84.04 187.76,83.68 188.15,83.33 188.54,83 188.94,82.68 189.33,82.38 189.73,82.09 190.12,81.82 190.52,81.56 190.91,81.32 191.3,81.1 191.7,80.89 192.09,80.7 192.49,80.53 192.88,80.36 193.28,80.21 193.67,80.07 194.07,79.94 194.46,79.82 194.85,79.7 195.25,79.58 195.64,79.46 196.04,79.33 196.43,79.2 196.83,79.06 197.22,78.91 197.62,78.75 198.01,78.57 198.4,78.38 198.8,78.17 199.19,77.95 199.59,77.71 199.98,77.46 200.38,77.2 200.77,76.93 201.17,76.65 201.56,76.36 201.95,76.07 202.35,75.77 202.74,75.48 203.14,75.19 203.53,74.91 203.93,74.63 204.32,74.35 204.71,74.09 205.11,73.84 205.5,73.6 205.9,73.37 206.29,73.15 206.69,72.95 207.08,72.76 207.48,72.58 207.87,72.41 208.26,72.26 208.66,72.12 209.05,71.99 209.45,71.87 209.84,71.75 210.24,71.64 210.63,71.54 211.03,71.44 211.42,71.34 211.81,71.25 212.21,71.16 212.6,71.06 213,70.97 213.39,70.88 213.79,70.78 214.18,70.69 214.58,70.59 214.97,70.49 215.36,70.39 215.76,70.29 216.15,70.19 216.55,70.08 216.94,69.97 217.34,69.86 217.73,69.74 218.12,69.62 218.52,69.5 218.91,69.36 219.31,69.22 219.7,69.08 220.1,68.92 220.49,68.76 220.89,68.59 221.28,68.41 221.67,68.23 222.07,68.03 222.46,67.84 222.86,67.64 223.25,67.44 223.65,67.23 224.04,67.03 224.44,66.83 224.83,66.64 225.22,66.45 225.62,66.27 226.01,66.11 226.41,65.95 226.8,65.81 227.2,65.68 227.59,65.57 227.98,65.47 228.38,65.38 228.77,65.31 229.17,65.25 229.56,65.2 229.96,65.16 230.35,65.13 230.75,65.11 231.14,65.1 231.53,65.09 231.93,65.08 232.32,65.07 232.72,65.07 233.11,65.06 233.51,65.05 233.9,65.04 234.3,65.02 234.69,65 235.08,64.97 235.48,64.93 235.87,64.89 236.27,64.84 236.66,64.78 237.06,64.71 237.45,64.63 237.85,64.54 238.24,64.44 238.63,64.33 239.03,64.22 239.42,64.1 239.82,63.97 240.21,63.84 240.61,63.7 241,63.56 241.39,63.41 241.79,63.27 242.18,63.12 242.58,62.97 242.97,62.83 243.37,62.68 243.76,62.53 244.16,62.38 244.55,62.23 244.94,62.08 245.34,61.92 245.73,61.75 246.13,61.57 246.52,61.38 246.92,61.17 247.31,60.95 247.71,60.72 248.1,60.47 248.49,60.2 248.89,59.92 249.28,59.62 249.68,59.3 250.07,58.98 250.47,58.65 250.86,58.32 251.25,57.99 251.65,57.66 252.04,57.34 252.44,57.03 252.83,56.73 253.23,56.45 253.62,56.19 254.02,55.96 254.41,55.74 254.8,55.54 255.2,55.37 255.59,55.22 255.99,55.09 256.38,54.97 256.78,54.88 257.17,54.8 257.57,54.73 257.96,54.68 258.35,54.64 258.75,54.6 259.14,54.58 259.54,54.55 259.93,54.54 260.33,54.53 260.72,54.52 261.12,54.51 261.51,54.5" stroke-dasharray="none" stroke="rgb(228,26,28)" stroke-width="0.75" opacity="1" stroke-opacity="1" fill="none" class="aqm2" onclick="plotObjRespond('click', 2, 'dens')" onmouseover="plotObjRespond('show', 2, 'dens')" onmouseout="plotObjRespond('hide', 2, 'dens')"/>
          </g>
          <g id="Fig:densplot_01.xyplot.lines.group.3.panel.1.1.1">
            <polyline id="Fig:densplot_01.xyplot.lines.group.3.panel.1.1.1.1" points="60.05,54.51 60.44,54.52 60.84,54.54 61.23,54.56 61.62,54.59 62.02,54.63 62.41,54.68 62.81,54.76 63.2,54.86 63.59,55 63.99,55.18 64.38,55.41 64.78,55.7 65.17,56.08 65.57,56.55 65.96,57.15 66.35,57.9 66.75,58.81 67.14,59.9 67.54,61.21 67.93,62.74 68.33,64.54 68.72,66.61 69.11,69.03 69.51,71.77 69.9,74.85 70.3,78.26 70.69,82.01 71.08,86.09 71.48,90.49 71.87,95.18 72.27,100.18 72.66,105.4 73.06,110.8 73.45,116.34 73.84,121.95 74.24,127.61 74.63,133.24 75.03,138.8 75.42,144.22 75.82,149.45 76.21,154.45 76.6,159.2 77,163.67 77.39,167.84 77.79,171.69 78.18,175.22 78.58,178.39 78.97,181.22 79.36,183.76 79.76,186.02 80.15,188.02 80.55,189.79 80.94,191.34 81.33,192.7 81.73,193.89 82.12,194.95 82.52,195.9 82.91,196.77 83.31,197.58 83.7,198.34 84.09,199.07 84.49,199.77 84.88,200.45 85.28,201.13 85.67,201.81 86.07,202.49 86.46,203.16 86.85,203.83 87.25,204.5 87.64,205.16 88.04,205.81 88.43,206.45 88.82,207.07 89.22,207.68 89.61,208.26 90.01,208.83 90.4,209.38 90.8,209.91 91.19,210.41 91.58,210.89 91.98,211.35 92.37,211.79 92.77,212.21 93.16,212.6 93.56,212.98 93.95,213.34 94.34,213.67 94.74,213.99 95.13,214.28 95.53,214.54 95.92,214.79 96.32,215.01 96.71,215.2 97.1,215.37 97.5,215.51 97.89,215.63 98.29,215.72 98.68,215.79 99.07,215.84 99.47,215.88 99.86,215.91 100.26,215.92 100.65,215.94 101.05,215.95 101.44,215.96 101.83,215.99 102.23,216.01 102.62,216.05 103.02,216.09 103.41,216.14 103.81,216.2 104.2,216.26 104.59,216.32 104.99,216.39 105.38,216.45 105.78,216.52 106.17,216.58 106.56,216.63 106.96,216.68 107.35,216.72 107.75,216.77 108.14,216.81 108.54,216.86 108.93,216.92 109.32,216.99 109.72,217.07 110.11,217.16 110.51,217.28 110.9,217.42 111.3,217.57 111.69,217.75 112.08,217.94 112.48,218.14 112.87,218.36 113.27,218.57 113.66,218.78 114.06,218.99 114.45,219.17 114.84,219.34 115.24,219.48 115.63,219.6 116.03,219.68 116.42,219.74 116.81,219.76 117.21,219.76 117.6,219.73 118,219.69 118.39,219.64 118.79,219.58 119.18,219.52 119.57,219.46 119.97,219.42 120.36,219.4 120.76,219.39 121.15,219.41 121.55,219.46 121.94,219.55 122.33,219.66 122.73,219.81 123.12,220.01 123.52,220.24 123.91,220.51 124.3,220.81 124.7,221.15 125.09,221.52 125.49,221.92 125.88,222.34 126.28,222.78 126.67,223.24 127.06,223.69 127.46,224.14 127.85,224.57 128.25,224.99 128.64,225.39 129.04,225.75 129.43,226.07 129.82,226.35 130.22,226.59 130.61,226.79 131.01,226.95 131.4,227.08 131.8,227.17 132.19,227.24 132.58,227.29 132.98,227.32 133.37,227.35 133.77,227.37 134.16,227.4 134.55,227.43 134.95,227.47 135.34,227.52 135.74,227.58 136.13,227.64 136.53,227.72 136.92,227.81 137.31,227.91 137.71,228.01 138.1,228.12 138.5,228.24 138.89,228.37 139.29,228.49 139.68,228.63 140.07,228.77 140.47,228.91 140.86,229.06 141.26,229.21 141.65,229.35 142.04,229.5 142.44,229.64 142.83,229.77 143.23,229.89 143.62,230 144.02,230.09 144.41,230.16 144.8,230.2 145.2,230.23 145.59,230.22 145.99,230.19 146.38,230.14 146.78,230.06 147.17,229.96 147.56,229.84 147.96,229.71 148.35,229.55 148.75,229.38 149.14,229.21 149.54,229.02 149.93,228.83 150.32,228.63 150.72,228.42 151.11,228.22 151.51,228.01 151.9,227.79 152.29,227.58 152.69,227.36 153.08,227.13 153.48,226.9 153.87,226.67 154.27,226.44 154.66,226.2 155.05,225.97 155.45,225.74 155.84,225.51 156.24,225.3 156.63,225.09 157.03,224.89 157.42,224.7 157.81,224.53 158.21,224.36 158.6,224.18 159,224 159.39,223.8 159.78,223.57 160.18,223.28 160.57,222.93 160.97,222.48 161.36,221.91 161.76,221.21 162.15,220.34 162.54,219.29 162.94,218.03 163.33,216.56 163.73,214.84 164.12,212.85 164.52,210.58 164.91,208.04 165.3,205.22 165.7,202.15 166.09,198.82 166.49,195.25 166.88,191.46 167.28,187.45 167.67,183.26 168.06,178.93 168.46,174.49 168.85,169.97 169.25,165.42 169.64,160.85 170.03,156.31 170.43,151.82 170.82,147.44 171.22,143.17 171.61,139.05 172.01,135.09 172.4,131.3 172.79,127.7 173.19,124.29 173.58,121.1 173.98,118.14 174.37,115.37 174.77,112.79 175.16,110.4 175.55,108.19 175.95,106.14 176.34,104.25 176.74,102.51 177.13,100.92 177.52,99.44 177.92,98.08 178.31,96.82 178.71,95.65 179.1,94.56 179.5,93.55 179.89,92.62 180.28,91.77 180.68,90.98 181.07,90.24 181.47,89.56 181.86,88.93 182.26,88.34 182.65,87.8 183.04,87.29 183.44,86.82 183.83,86.37 184.23,85.95 184.62,85.54 185.02,85.15 185.41,84.77 185.8,84.39 186.2,84.03 186.59,83.67 186.99,83.32 187.38,82.97 187.77,82.63 188.17,82.3 188.56,81.97 188.96,81.65 189.35,81.33 189.75,81.03 190.14,80.74 190.53,80.45 190.93,80.18 191.32,79.91 191.72,79.65 192.11,79.39 192.51,79.14 192.9,78.9 193.29,78.65 193.69,78.41 194.08,78.17 194.48,77.93 194.87,77.69 195.27,77.45 195.66,77.21 196.05,76.98 196.45,76.75 196.84,76.53 197.24,76.31 197.63,76.1 198.02,75.9 198.42,75.71 198.81,75.52 199.21,75.35 199.6,75.18 200,75.02 200.39,74.87 200.78,74.73 201.18,74.58 201.57,74.44 201.97,74.29 202.36,74.14 202.76,73.98 203.15,73.81 203.54,73.63 203.94,73.45 204.33,73.25 204.73,73.04 205.12,72.83 205.51,72.6 205.91,72.37 206.3,72.14 206.7,71.91 207.09,71.68 207.49,71.45 207.88,71.23 208.27,71.01 208.67,70.81 209.06,70.62 209.46,70.44 209.85,70.27 210.25,70.12 210.64,69.97 211.03,69.84 211.43,69.72 211.82,69.61 212.22,69.5 212.61,69.41 213.01,69.31 213.4,69.23 213.79,69.14 214.19,69.06 214.58,68.97 214.98,68.89 215.37,68.8 215.76,68.71 216.16,68.61 216.55,68.51 216.95,68.4 217.34,68.28 217.74,68.15 218.13,68.02 218.52,67.88 218.92,67.73 219.31,67.58 219.71,67.42 220.1,67.27 220.5,67.1 220.89,66.94 221.28,66.78 221.68,66.62 222.07,66.46 222.47,66.31 222.86,66.16 223.25,66.01 223.65,65.87 224.04,65.73 224.44,65.6 224.83,65.46 225.23,65.33 225.62,65.21 226.01,65.08 226.41,64.95 226.8,64.83 227.2,64.71 227.59,64.59 227.99,64.47 228.38,64.35 228.77,64.24 229.17,64.13 229.56,64.03 229.96,63.94 230.35,63.85 230.75,63.77 231.14,63.7 231.53,63.63 231.93,63.58 232.32,63.53 232.72,63.49 233.11,63.46 233.5,63.43 233.9,63.41 234.29,63.39 234.69,63.37 235.08,63.36 235.48,63.34 235.87,63.32 236.26,63.3 236.66,63.27 237.05,63.24 237.45,63.2 237.84,63.16 238.24,63.11 238.63,63.06 239.02,63 239.42,62.94 239.81,62.87 240.21,62.8 240.6,62.72 240.99,62.64 241.39,62.55 241.78,62.46 242.18,62.36 242.57,62.27 242.97,62.17 243.36,62.06 243.75,61.95 244.15,61.84 244.54,61.71 244.94,61.58 245.33,61.44 245.73,61.29 246.12,61.13 246.51,60.95 246.91,60.75 247.3,60.53 247.7,60.3 248.09,60.05 248.49,59.79 248.88,59.51 249.27,59.21 249.67,58.91 250.06,58.59 250.46,58.27 250.85,57.95 251.24,57.63 251.64,57.32 252.03,57.02 252.43,56.73 252.82,56.45 253.22,56.2 253.61,55.96 254,55.74 254.4,55.55 254.79,55.38 255.19,55.22 255.58,55.09 255.98,54.98 256.37,54.88 256.76,54.8 257.16,54.74 257.55,54.68 257.95,54.64 258.34,54.6 258.73,54.58 259.13,54.55 259.52,54.54 259.92,54.53 260.31,54.52 260.71,54.51 261.1,54.5 261.49,54.5" stroke-dasharray="none" stroke="rgb(228,26,28)" stroke-width="0.75" opacity="1" stroke-opacity="1" fill="none" class="aqm3" onclick="plotObjRespond('click', 3, 'dens')" onmouseover="plotObjRespond('show', 3, 'dens')" onmouseout="plotObjRespond('hide', 3, 'dens')"/>
          </g>
          <g id="Fig:densplot_01.xyplot.lines.group.4.panel.1.1.1">
            <polyline id="Fig:densplot_01.xyplot.lines.group.4.panel.1.1.1.1" points="59.81,54.51 60.2,54.52 60.6,54.54 60.99,54.55 61.39,54.58 61.78,54.62 62.18,54.67 62.57,54.74 62.97,54.84 63.36,54.97 63.75,55.14 64.15,55.36 64.54,55.65 64.94,56.01 65.33,56.46 65.73,57.04 66.12,57.76 66.52,58.63 66.91,59.69 67.31,60.94 67.7,62.43 68.1,64.16 68.49,66.16 68.88,68.5 69.28,71.16 69.67,74.13 70.07,77.43 70.46,81.05 70.86,84.99 71.25,89.24 71.65,93.77 72.04,98.58 72.44,103.62 72.83,108.82 73.23,114.15 73.62,119.56 74.01,125 74.41,130.43 74.8,135.8 75.2,141.03 75.59,146.11 75.99,150.98 76.38,155.64 76.78,160.05 77.17,164.2 77.57,168.08 77.96,171.67 78.36,174.96 78.75,177.96 79.14,180.7 79.54,183.2 79.93,185.46 80.33,187.5 80.72,189.35 81.12,191.01 81.51,192.49 81.91,193.82 82.3,195.02 82.7,196.12 83.09,197.13 83.49,198.05 83.88,198.91 84.27,199.71 84.67,200.47 85.06,201.19 85.46,201.88 85.85,202.56 86.25,203.22 86.64,203.88 87.04,204.53 87.43,205.18 87.83,205.83 88.22,206.48 88.62,207.12 89.01,207.77 89.4,208.41 89.8,209.04 90.19,209.67 90.59,210.28 90.98,210.88 91.38,211.45 91.77,212 92.17,212.52 92.56,213 92.96,213.46 93.35,213.88 93.75,214.26 94.14,214.61 94.53,214.92 94.93,215.22 95.32,215.48 95.72,215.74 96.11,215.98 96.51,216.22 96.9,216.47 97.3,216.72 97.69,217 98.09,217.29 98.48,217.6 98.88,217.93 99.27,218.29 99.66,218.68 100.06,219.08 100.45,219.5 100.85,219.93 101.24,220.37 101.64,220.81 102.03,221.24 102.43,221.66 102.82,222.06 103.22,222.44 103.61,222.78 104.01,223.09 104.4,223.35 104.79,223.56 105.19,223.73 105.58,223.85 105.98,223.92 106.37,223.94 106.77,223.91 107.16,223.82 107.56,223.7 107.95,223.55 108.35,223.37 108.74,223.16 109.14,222.95 109.53,222.72 109.92,222.49 110.32,222.27 110.71,222.05 111.11,221.85 111.5,221.66 111.9,221.49 112.29,221.34 112.69,221.21 113.08,221.09 113.48,220.99 113.87,220.9 114.27,220.82 114.66,220.76 115.05,220.7 115.45,220.65 115.84,220.6 116.24,220.57 116.63,220.54 117.03,220.52 117.42,220.5 117.82,220.5 118.21,220.51 118.61,220.52 119,220.55 119.4,220.6 119.79,220.66 120.18,220.73 120.58,220.82 120.97,220.93 121.37,221.06 121.76,221.2 122.16,221.35 122.55,221.53 122.95,221.72 123.34,221.92 123.74,222.13 124.13,222.35 124.53,222.58 124.92,222.81 125.31,223.04 125.71,223.27 126.1,223.48 126.5,223.69 126.89,223.88 127.29,224.05 127.68,224.2 128.08,224.32 128.47,224.43 128.87,224.5 129.26,224.55 129.66,224.58 130.05,224.59 130.44,224.57 130.84,224.55 131.23,224.51 131.63,224.47 132.02,224.42 132.42,224.37 132.81,224.34 133.21,224.31 133.6,224.3 134,224.3 134.39,224.32 134.79,224.36 135.18,224.41 135.57,224.49 135.97,224.58 136.36,224.69 136.76,224.8 137.15,224.93 137.55,225.06 137.94,225.19 138.34,225.32 138.73,225.44 139.13,225.54 139.52,225.62 139.92,225.69 140.31,225.73 140.7,225.74 141.1,225.72 141.49,225.68 141.89,225.6 142.28,225.49 142.68,225.36 143.07,225.22 143.47,225.05 143.86,224.89 144.26,224.72 144.65,224.56 145.05,224.41 145.44,224.3 145.83,224.21 146.23,224.16 146.62,224.15 147.02,224.18 147.41,224.26 147.81,224.38 148.2,224.54 148.6,224.75 148.99,224.99 149.39,225.26 149.78,225.54 150.18,225.83 150.57,226.12 150.96,226.41 151.36,226.68 151.75,226.93 152.15,227.14 152.54,227.32 152.94,227.47 153.33,227.57 153.73,227.63 154.12,227.65 154.52,227.62 154.91,227.55 155.31,227.45 155.7,227.31 156.09,227.14 156.49,226.94 156.88,226.71 157.28,226.45 157.67,226.17 158.07,225.84 158.46,225.48 158.86,225.08 159.25,224.63 159.65,224.12 160.04,223.54 160.44,222.88 160.83,222.11 161.22,221.22 161.62,220.2 162.01,219.03 162.41,217.69 162.8,216.18 163.2,214.47 163.59,212.55 163.99,210.4 164.38,207.99 164.78,205.35 165.17,202.48 165.57,199.37 165.96,196.04 166.35,192.5 166.75,188.76 167.14,184.83 167.54,180.73 167.93,176.51 168.33,172.19 168.72,167.8 169.12,163.36 169.51,158.92 169.91,154.49 170.3,150.11 170.7,145.82 171.09,141.63 171.48,137.56 171.88,133.64 172.27,129.88 172.67,126.29 173.06,122.89 173.46,119.69 173.85,116.71 174.25,113.94 174.64,111.36 175.04,108.98 175.43,106.78 175.83,104.78 176.22,102.95 176.61,101.29 177.01,99.8 177.4,98.45 177.8,97.22 178.19,96.11 178.59,95.09 178.98,94.17 179.38,93.32 179.77,92.55 180.17,91.83 180.56,91.16 180.96,90.53 181.35,89.93 181.74,89.36 182.14,88.81 182.53,88.28 182.93,87.78 183.32,87.29 183.72,86.82 184.11,86.37 184.51,85.94 184.9,85.52 185.3,85.12 185.69,84.73 186.09,84.36 186.48,84.01 186.87,83.67 187.27,83.35 187.66,83.04 188.06,82.74 188.45,82.45 188.85,82.17 189.24,81.9 189.64,81.64 190.03,81.38 190.43,81.13 190.82,80.88 191.22,80.64 191.61,80.41 192,80.17 192.4,79.95 192.79,79.72 193.19,79.5 193.58,79.29 193.98,79.07 194.37,78.86 194.77,78.65 195.16,78.44 195.56,78.22 195.95,78.01 196.35,77.79 196.74,77.57 197.13,77.34 197.53,77.11 197.92,76.87 198.32,76.63 198.71,76.39 199.11,76.14 199.5,75.89 199.9,75.64 200.29,75.39 200.69,75.14 201.08,74.9 201.48,74.66 201.87,74.43 202.26,74.21 202.66,74 203.05,73.79 203.45,73.59 203.84,73.4 204.24,73.22 204.63,73.05 205.03,72.88 205.42,72.71 205.82,72.55 206.21,72.38 206.61,72.22 207,72.06 207.39,71.89 207.79,71.72 208.18,71.56 208.58,71.38 208.97,71.21 209.37,71.03 209.76,70.84 210.16,70.66 210.55,70.47 210.95,70.28 211.34,70.08 211.74,69.89 212.13,69.7 212.52,69.5 212.92,69.31 213.31,69.11 213.71,68.92 214.1,68.73 214.5,68.54 214.89,68.36 215.29,68.18 215.68,68.01 216.08,67.84 216.47,67.68 216.87,67.53 217.26,67.39 217.65,67.26 218.05,67.14 218.44,67.04 218.84,66.94 219.23,66.86 219.63,66.78 220.02,66.71 220.42,66.65 220.81,66.6 221.21,66.55 221.6,66.51 222,66.47 222.39,66.42 222.78,66.38 223.18,66.33 223.57,66.29 223.97,66.24 224.36,66.18 224.76,66.12 225.15,66.06 225.55,65.99 225.94,65.92 226.34,65.85 226.73,65.78 227.13,65.71 227.52,65.63 227.91,65.55 228.31,65.48 228.7,65.4 229.1,65.32 229.49,65.25 229.89,65.17 230.28,65.1 230.68,65.03 231.07,64.96 231.47,64.9 231.86,64.83 232.26,64.78 232.65,64.72 233.04,64.68 233.44,64.63 233.83,64.59 234.23,64.56 234.62,64.53 235.02,64.49 235.41,64.46 235.81,64.43 236.2,64.38 236.6,64.34 236.99,64.28 237.39,64.21 237.78,64.12 238.17,64.03 238.57,63.91 238.96,63.78 239.36,63.63 239.75,63.47 240.15,63.29 240.54,63.09 240.94,62.88 241.33,62.67 241.73,62.44 242.12,62.21 242.52,61.97 242.91,61.73 243.3,61.49 243.7,61.25 244.09,61.01 244.49,60.78 244.88,60.54 245.28,60.31 245.67,60.08 246.07,59.86 246.46,59.63 246.86,59.41 247.25,59.19 247.65,58.96 248.04,58.74 248.43,58.51 248.83,58.28 249.22,58.05 249.62,57.82 250.01,57.58 250.41,57.35 250.8,57.12 251.2,56.89 251.59,56.67 251.99,56.45 252.38,56.24 252.78,56.04 253.17,55.85 253.56,55.68 253.96,55.52 254.35,55.37 254.75,55.24 255.14,55.12 255.54,55.01 255.93,54.92 256.33,54.84 256.72,54.77 257.12,54.72 257.51,54.67 257.91,54.63 258.3,54.6 258.69,54.57 259.09,54.55 259.48,54.54 259.88,54.53 260.27,54.52 260.67,54.51 261.06,54.51 261.46,54.5" stroke-dasharray="none" stroke="rgb(55,126,184)" stroke-width="0.75" opacity="1" stroke-opacity="1" fill="none" class="aqm4" onclick="plotObjRespond('click', 4, 'dens')" onmouseover="plotObjRespond('show', 4, 'dens')" onmouseout="plotObjRespond('hide', 4, 'dens')"/>
          </g>
          <g id="Fig:densplot_01.xyplot.lines.group.5.panel.1.1.1">
            <polyline id="Fig:densplot_01.xyplot.lines.group.5.panel.1.1.1.1" points="59.6,54.51 60,54.52 60.39,54.53 60.79,54.54 61.18,54.57 61.58,54.6 61.98,54.64 62.37,54.71 62.77,54.79 63.16,54.9 63.56,55.05 63.95,55.25 64.35,55.5 64.74,55.82 65.14,56.23 65.53,56.73 65.93,57.37 66.32,58.16 66.72,59.13 67.11,60.28 67.51,61.64 67.91,63.24 68.3,65.1 68.7,67.24 69.09,69.7 69.49,72.49 69.88,75.6 70.28,79.03 70.67,82.77 71.07,86.82 71.46,91.16 71.86,95.76 72.25,100.62 72.65,105.68 73.05,110.88 73.44,116.19 73.84,121.56 74.23,126.94 74.63,132.28 75.02,137.54 75.42,142.67 75.81,147.61 76.21,152.35 76.6,156.85 77,161.1 77.39,165.09 77.79,168.8 78.18,172.22 78.58,175.34 78.98,178.16 79.37,180.72 79.77,183.03 80.16,185.11 80.56,186.98 80.95,188.66 81.35,190.17 81.74,191.51 82.14,192.72 82.53,193.83 82.93,194.85 83.32,195.8 83.72,196.69 84.11,197.54 84.51,198.35 84.91,199.12 85.3,199.87 85.7,200.6 86.09,201.32 86.49,202.01 86.88,202.69 87.28,203.35 87.67,203.99 88.07,204.6 88.46,205.2 88.86,205.78 89.25,206.35 89.65,206.89 90.04,207.42 90.44,207.93 90.84,208.42 91.23,208.9 91.63,209.37 92.02,209.81 92.42,210.24 92.81,210.66 93.21,211.05 93.6,211.42 94,211.77 94.39,212.1 94.79,212.39 95.18,212.66 95.58,212.9 95.98,213.12 96.37,213.3 96.77,213.47 97.16,213.6 97.56,213.71 97.95,213.81 98.35,213.88 98.74,213.94 99.14,213.99 99.53,214.03 99.93,214.07 100.32,214.11 100.72,214.14 101.11,214.19 101.51,214.24 101.91,214.31 102.3,214.39 102.7,214.49 103.09,214.6 103.49,214.74 103.88,214.91 104.28,215.1 104.67,215.31 105.07,215.55 105.46,215.81 105.86,216.09 106.25,216.39 106.65,216.7 107.04,217.02 107.44,217.35 107.84,217.68 108.23,218 108.63,218.31 109.02,218.61 109.42,218.89 109.81,219.15 110.21,219.39 110.6,219.61 111,219.8 111.39,219.97 111.79,220.12 112.18,220.26 112.58,220.38 112.98,220.49 113.37,220.59 113.77,220.7 114.16,220.81 114.56,220.92 114.95,221.05 115.35,221.2 115.74,221.36 116.14,221.54 116.53,221.73 116.93,221.95 117.32,222.18 117.72,222.43 118.11,222.68 118.51,222.93 118.91,223.18 119.3,223.42 119.7,223.64 120.09,223.85 120.49,224.04 120.88,224.2 121.28,224.34 121.67,224.45 122.07,224.54 122.46,224.6 122.86,224.65 123.25,224.67 123.65,224.69 124.04,224.7 124.44,224.71 124.84,224.71 125.23,224.73 125.63,224.75 126.02,224.78 126.42,224.83 126.81,224.88 127.21,224.95 127.6,225.03 128,225.12 128.39,225.22 128.79,225.32 129.18,225.42 129.58,225.52 129.98,225.61 130.37,225.68 130.77,225.75 131.16,225.79 131.56,225.81 131.95,225.81 132.35,225.79 132.74,225.73 133.14,225.65 133.53,225.54 133.93,225.41 134.32,225.26 134.72,225.08 135.11,224.88 135.51,224.66 135.91,224.43 136.3,224.19 136.7,223.95 137.09,223.69 137.49,223.44 137.88,223.19 138.28,222.95 138.67,222.71 139.07,222.48 139.46,222.27 139.86,222.08 140.25,221.91 140.65,221.77 141.04,221.65 141.44,221.56 141.84,221.52 142.23,221.51 142.63,221.54 143.02,221.62 143.42,221.74 143.81,221.9 144.21,222.1 144.6,222.34 145,222.62 145.39,222.93 145.79,223.25 146.18,223.59 146.58,223.93 146.98,224.26 147.37,224.58 147.77,224.88 148.16,225.16 148.56,225.39 148.95,225.59 149.35,225.74 149.74,225.86 150.14,225.94 150.53,225.98 150.93,225.99 151.32,225.98 151.72,225.94 152.11,225.9 152.51,225.86 152.91,225.81 153.3,225.78 153.7,225.76 154.09,225.76 154.49,225.77 154.88,225.8 155.28,225.85 155.67,225.92 156.07,226 156.46,226.08 156.86,226.16 157.25,226.24 157.65,226.31 158.04,226.35 158.44,226.36 158.84,226.33 159.23,226.25 159.63,226.1 160.02,225.89 160.42,225.58 160.81,225.17 161.21,224.62 161.6,223.93 162,223.08 162.39,222.04 162.79,220.81 163.18,219.36 163.58,217.68 163.98,215.72 164.37,213.47 164.77,210.94 165.16,208.13 165.56,205.04 165.95,201.67 166.35,198.04 166.74,194.15 167.14,190.02 167.53,185.67 167.93,181.15 168.32,176.5 168.72,171.76 169.11,166.97 169.51,162.15 169.91,157.36 170.3,152.63 170.7,148.01 171.09,143.53 171.49,139.21 171.88,135.07 172.28,131.12 172.67,127.4 173.07,123.89 173.46,120.63 173.86,117.62 174.25,114.84 174.65,112.27 175.04,109.91 175.44,107.75 175.84,105.78 176.23,103.98 176.63,102.35 177.02,100.89 177.42,99.55 177.81,98.33 178.21,97.22 178.6,96.2 179,95.27 179.39,94.41 179.79,93.63 180.18,92.91 180.58,92.24 180.98,91.62 181.37,91.04 181.77,90.49 182.16,89.97 182.56,89.49 182.95,89.03 183.35,88.6 183.74,88.2 184.14,87.81 184.53,87.45 184.93,87.1 185.32,86.77 185.72,86.46 186.11,86.17 186.51,85.88 186.91,85.61 187.3,85.34 187.7,85.08 188.09,84.83 188.49,84.58 188.88,84.34 189.28,84.09 189.67,83.85 190.07,83.6 190.46,83.36 190.86,83.11 191.25,82.87 191.65,82.63 192.04,82.38 192.44,82.14 192.84,81.9 193.23,81.65 193.63,81.41 194.02,81.17 194.42,80.93 194.81,80.68 195.21,80.43 195.6,80.18 196,79.92 196.39,79.65 196.79,79.38 197.18,79.09 197.58,78.8 197.98,78.5 198.37,78.19 198.77,77.88 199.16,77.56 199.56,77.23 199.95,76.91 200.35,76.58 200.74,76.26 201.14,75.94 201.53,75.62 201.93,75.32 202.32,75.03 202.72,74.75 203.11,74.49 203.51,74.24 203.91,74 204.3,73.77 204.7,73.56 205.09,73.36 205.49,73.17 205.88,73 206.28,72.83 206.67,72.67 207.07,72.52 207.46,72.38 207.86,72.24 208.25,72.11 208.65,71.98 209.04,71.85 209.44,71.73 209.84,71.61 210.23,71.49 210.63,71.38 211.02,71.26 211.42,71.15 211.81,71.04 212.21,70.93 212.6,70.81 213,70.7 213.39,70.59 213.79,70.47 214.18,70.35 214.58,70.23 214.98,70.1 215.37,69.96 215.77,69.82 216.16,69.66 216.56,69.5 216.95,69.34 217.35,69.16 217.74,68.98 218.14,68.78 218.53,68.59 218.93,68.39 219.32,68.19 219.72,67.99 220.11,67.79 220.51,67.59 220.91,67.4 221.3,67.21 221.7,67.03 222.09,66.86 222.49,66.69 222.88,66.54 223.28,66.39 223.67,66.26 224.07,66.13 224.46,66.02 224.86,65.92 225.25,65.82 225.65,65.74 226.04,65.66 226.44,65.59 226.84,65.53 227.23,65.47 227.63,65.43 228.02,65.38 228.42,65.34 228.81,65.3 229.21,65.27 229.6,65.23 230,65.2 230.39,65.16 230.79,65.11 231.18,65.06 231.58,65.01 231.98,64.95 232.37,64.88 232.77,64.8 233.16,64.71 233.56,64.62 233.95,64.51 234.35,64.4 234.74,64.28 235.14,64.16 235.53,64.03 235.93,63.89 236.32,63.76 236.72,63.63 237.11,63.5 237.51,63.38 237.91,63.26 238.3,63.15 238.7,63.04 239.09,62.94 239.49,62.86 239.88,62.77 240.28,62.7 240.67,62.63 241.07,62.57 241.46,62.51 241.86,62.44 242.25,62.38 242.65,62.32 243.04,62.24 243.44,62.16 243.84,62.08 244.23,61.98 244.63,61.86 245.02,61.74 245.42,61.6 245.81,61.44 246.21,61.26 246.6,61.07 247,60.86 247.39,60.63 247.79,60.38 248.18,60.12 248.58,59.84 248.98,59.55 249.37,59.24 249.77,58.93 250.16,58.61 250.56,58.29 250.95,57.97 251.35,57.65 251.74,57.34 252.14,57.04 252.53,56.75 252.93,56.48 253.32,56.23 253.72,55.99 254.11,55.78 254.51,55.58 254.91,55.41 255.3,55.25 255.7,55.12 256.09,55.01 256.49,54.91 256.88,54.82 257.28,54.76 257.67,54.7 258.07,54.65 258.46,54.61 258.86,54.59 259.25,54.56 259.65,54.54 260.04,54.53 260.44,54.52 260.84,54.51 261.23,54.51 261.63,54.5" stroke-dasharray="none" stroke="rgb(55,126,184)" stroke-width="0.75" opacity="1" stroke-opacity="1" fill="none" class="aqm5" onclick="plotObjRespond('click', 5, 'dens')" onmouseover="plotObjRespond('show', 5, 'dens')" onmouseout="plotObjRespond('hide', 5, 'dens')"/>
          </g>
          <g id="Fig:densplot_01.xyplot.lines.group.6.panel.1.1.1">
            <polyline id="Fig:densplot_01.xyplot.lines.group.6.panel.1.1.1.1" points="59.6,54.52 60,54.53 60.4,54.55 60.79,54.58 61.19,54.62 61.58,54.67 61.98,54.74 62.37,54.84 62.77,54.96 63.16,55.13 63.56,55.35 63.95,55.64 64.35,56 64.75,56.46 65.14,57.03 65.54,57.73 65.93,58.58 66.33,59.61 66.72,60.87 67.12,62.35 67.51,64.08 67.91,66.07 68.3,68.36 68.7,70.94 69.1,73.83 69.49,77.07 69.89,80.64 70.28,84.53 70.68,88.7 71.07,93.14 71.47,97.83 71.86,102.72 72.26,107.79 72.65,112.99 73.05,118.27 73.45,123.57 73.84,128.84 74.24,134.05 74.63,139.15 75.03,144.1 75.42,148.88 75.82,153.42 76.21,157.71 76.61,161.74 77,165.52 77.4,169.04 77.8,172.29 78.19,175.29 78.59,178.04 78.98,180.53 79.38,182.78 79.77,184.83 80.17,186.7 80.56,188.39 80.96,189.93 81.35,191.32 81.75,192.59 82.15,193.74 82.54,194.78 82.94,195.74 83.33,196.62 83.73,197.45 84.12,198.22 84.52,198.95 84.91,199.64 85.31,200.31 85.7,200.96 86.1,201.59 86.5,202.22 86.89,202.85 87.29,203.49 87.68,204.12 88.08,204.76 88.47,205.4 88.87,206.05 89.26,206.69 89.66,207.33 90.05,207.96 90.45,208.58 90.85,209.19 91.24,209.78 91.64,210.34 92.03,210.88 92.43,211.39 92.82,211.87 93.22,212.33 93.61,212.76 94.01,213.16 94.4,213.54 94.8,213.9 95.2,214.24 95.59,214.57 95.99,214.9 96.38,215.21 96.78,215.53 97.17,215.84 97.57,216.15 97.96,216.47 98.36,216.78 98.75,217.1 99.15,217.42 99.54,217.73 99.94,218.04 100.34,218.34 100.73,218.63 101.13,218.9 101.52,219.16 101.92,219.4 102.31,219.62 102.71,219.83 103.1,220.02 103.5,220.2 103.89,220.36 104.29,220.52 104.69,220.68 105.08,220.84 105.48,221 105.87,221.17 106.27,221.36 106.66,221.55 107.06,221.76 107.45,221.97 107.85,222.2 108.24,222.43 108.64,222.66 109.04,222.88 109.43,223.09 109.83,223.27 110.22,223.44 110.62,223.57 111.01,223.66 111.41,223.71 111.8,223.72 112.2,223.68 112.59,223.61 112.99,223.5 113.39,223.35 113.78,223.17 114.18,222.97 114.57,222.76 114.97,222.54 115.36,222.33 115.76,222.13 116.15,221.94 116.55,221.77 116.94,221.64 117.34,221.55 117.74,221.49 118.13,221.47 118.53,221.48 118.92,221.54 119.32,221.62 119.71,221.74 120.11,221.89 120.5,222.05 120.9,222.23 121.29,222.41 121.69,222.6 122.09,222.78 122.48,222.95 122.88,223.11 123.27,223.25 123.67,223.37 124.06,223.46 124.46,223.54 124.85,223.6 125.25,223.64 125.64,223.67 126.04,223.68 126.44,223.68 126.83,223.68 127.23,223.67 127.62,223.66 128.02,223.66 128.41,223.65 128.81,223.65 129.2,223.66 129.6,223.67 129.99,223.68 130.39,223.7 130.79,223.71 131.18,223.72 131.58,223.73 131.97,223.73 132.37,223.72 132.76,223.7 133.16,223.67 133.55,223.63 133.95,223.57 134.34,223.5 134.74,223.42 135.14,223.33 135.53,223.22 135.93,223.11 136.32,222.98 136.72,222.86 137.11,222.73 137.51,222.6 137.9,222.46 138.3,222.34 138.69,222.21 139.09,222.1 139.48,221.99 139.88,221.9 140.28,221.83 140.67,221.77 141.07,221.74 141.46,221.73 141.86,221.74 142.25,221.79 142.65,221.86 143.04,221.95 143.44,222.06 143.83,222.19 144.23,222.34 144.63,222.5 145.02,222.66 145.42,222.82 145.81,222.97 146.21,223.11 146.6,223.24 147,223.35 147.39,223.45 147.79,223.54 148.18,223.61 148.58,223.68 148.98,223.75 149.37,223.84 149.77,223.94 150.16,224.06 150.56,224.22 150.95,224.41 151.35,224.65 151.74,224.94 152.14,225.27 152.53,225.64 152.93,226.06 153.33,226.5 153.72,226.97 154.12,227.46 154.51,227.95 154.91,228.42 155.3,228.87 155.7,229.29 156.09,229.66 156.49,229.96 156.88,230.2 157.28,230.35 157.68,230.4 158.07,230.33 158.47,230.15 158.86,229.85 159.26,229.4 159.65,228.82 160.05,228.07 160.44,227.16 160.84,226.06 161.23,224.74 161.63,223.23 162.03,221.49 162.42,219.52 162.82,217.32 163.21,214.88 163.61,212.18 164,209.21 164.4,205.97 164.79,202.49 165.19,198.77 165.58,194.83 165.98,190.69 166.38,186.38 166.77,181.91 167.17,177.3 167.56,172.61 167.96,167.86 168.35,163.1 168.75,158.36 169.14,153.67 169.54,149.06 169.93,144.56 170.33,140.21 170.73,136.04 171.12,132.06 171.52,128.28 171.91,124.71 172.31,121.36 172.7,118.24 173.1,115.33 173.49,112.68 173.89,110.25 174.28,108.02 174.68,106 175.08,104.15 175.47,102.49 175.87,100.98 176.26,99.63 176.66,98.42 177.05,97.34 177.45,96.37 177.84,95.49 178.24,94.7 178.63,93.97 179.03,93.32 179.43,92.71 179.82,92.16 180.22,91.64 180.61,91.15 181.01,90.68 181.4,90.22 181.8,89.78 182.19,89.34 182.59,88.91 182.98,88.48 183.38,88.06 183.77,87.64 184.17,87.22 184.57,86.81 184.96,86.4 185.36,86.01 185.75,85.63 186.15,85.26 186.54,84.91 186.94,84.57 187.33,84.25 187.73,83.95 188.12,83.66 188.52,83.38 188.92,83.12 189.31,82.86 189.71,82.61 190.1,82.36 190.5,82.11 190.89,81.86 191.29,81.6 191.68,81.34 192.08,81.07 192.47,80.79 192.87,80.5 193.27,80.21 193.66,79.91 194.06,79.61 194.45,79.32 194.85,79.03 195.24,78.74 195.64,78.46 196.03,78.2 196.43,77.94 196.82,77.7 197.22,77.47 197.62,77.26 198.01,77.06 198.41,76.87 198.8,76.7 199.2,76.53 199.59,76.38 199.99,76.23 200.38,76.09 200.78,75.95 201.17,75.82 201.57,75.7 201.97,75.57 202.36,75.45 202.76,75.33 203.15,75.21 203.55,75.08 203.94,74.96 204.34,74.84 204.73,74.71 205.13,74.58 205.52,74.44 205.92,74.3 206.32,74.16 206.71,74 207.11,73.85 207.5,73.69 207.9,73.52 208.29,73.34 208.69,73.17 209.08,72.98 209.48,72.8 209.87,72.61 210.27,72.42 210.67,72.23 211.06,72.03 211.46,71.84 211.85,71.65 212.25,71.45 212.64,71.25 213.04,71.05 213.43,70.85 213.83,70.65 214.22,70.44 214.62,70.22 215.02,70 215.41,69.78 215.81,69.55 216.2,69.32 216.6,69.09 216.99,68.85 217.39,68.61 217.78,68.37 218.18,68.14 218.57,67.91 218.97,67.69 219.37,67.48 219.76,67.27 220.16,67.07 220.55,66.89 220.95,66.72 221.34,66.56 221.74,66.41 222.13,66.27 222.53,66.15 222.92,66.03 223.32,65.93 223.71,65.84 224.11,65.76 224.51,65.69 224.9,65.63 225.3,65.58 225.69,65.55 226.09,65.52 226.48,65.51 226.88,65.5 227.27,65.51 227.67,65.52 228.06,65.54 228.46,65.56 228.86,65.59 229.25,65.61 229.65,65.64 230.04,65.65 230.44,65.66 230.83,65.66 231.23,65.65 231.62,65.63 232.02,65.59 232.41,65.55 232.81,65.48 233.21,65.41 233.6,65.32 234,65.22 234.39,65.11 234.79,65 235.18,64.88 235.58,64.76 235.97,64.64 236.37,64.53 236.76,64.42 237.16,64.31 237.56,64.21 237.95,64.12 238.35,64.03 238.74,63.95 239.14,63.88 239.53,63.81 239.93,63.75 240.32,63.69 240.72,63.64 241.11,63.58 241.51,63.52 241.91,63.46 242.3,63.39 242.7,63.32 243.09,63.23 243.49,63.13 243.88,63.02 244.28,62.89 244.67,62.75 245.07,62.59 245.46,62.41 245.86,62.21 246.26,61.98 246.65,61.74 247.05,61.47 247.44,61.19 247.84,60.89 248.23,60.57 248.63,60.24 249.02,59.89 249.42,59.53 249.81,59.17 250.21,58.81 250.61,58.45 251,58.09 251.4,57.74 251.79,57.4 252.19,57.08 252.58,56.77 252.98,56.49 253.37,56.22 253.77,55.98 254.16,55.76 254.56,55.56 254.96,55.39 255.35,55.23 255.75,55.1 256.14,54.99 256.54,54.89 256.93,54.81 257.33,54.74 257.72,54.69 258.12,54.64 258.51,54.61 258.91,54.58 259.31,54.56 259.7,54.54 260.1,54.53 260.49,54.52 260.89,54.51 261.28,54.51 261.68,54.5" stroke-dasharray="none" stroke="rgb(55,126,184)" stroke-width="0.75" opacity="1" stroke-opacity="1" fill="none" class="aqm6" onclick="plotObjRespond('click', 6, 'dens')" onmouseover="plotObjRespond('show', 6, 'dens')" onmouseout="plotObjRespond('hide', 6, 'dens')"/>
          </g>
          <g id="Fig:densplot_01.xyplot.lines.group.7.panel.1.1.1">
            <polyline id="Fig:densplot_01.xyplot.lines.group.7.panel.1.1.1.1" points="59,54.5 59.4,54.51 59.79,54.52 60.19,54.53 60.59,54.55 60.98,54.57 61.38,54.6 61.78,54.65 62.17,54.71 62.57,54.79 62.97,54.9 63.36,55.05 63.76,55.24 64.16,55.49 64.55,55.81 64.95,56.2 65.35,56.7 65.74,57.31 66.14,58.08 66.54,59 66.93,60.11 67.33,61.42 67.73,62.95 68.12,64.73 68.52,66.76 68.92,69.1 69.31,71.76 69.71,74.71 70.11,77.97 70.5,81.54 70.9,85.39 71.3,89.53 71.69,93.92 72.09,98.57 72.49,103.44 72.88,108.47 73.28,113.62 73.68,118.86 74.07,124.15 74.47,129.44 74.87,134.7 75.26,139.87 75.66,144.91 76.06,149.8 76.45,154.52 76.85,159.02 77.25,163.31 77.64,167.36 78.04,171.15 78.44,174.67 78.83,177.91 79.23,180.89 79.63,183.61 80.02,186.09 80.42,188.32 80.82,190.33 81.21,192.12 81.61,193.69 82.01,195.06 82.4,196.26 82.8,197.3 83.2,198.2 83.59,198.97 83.99,199.62 84.39,200.17 84.78,200.62 85.18,201 85.58,201.3 85.97,201.55 86.37,201.75 86.77,201.92 87.16,202.06 87.56,202.17 87.96,202.28 88.35,202.38 88.75,202.48 89.15,202.6 89.54,202.73 89.94,202.89 90.34,203.08 90.73,203.3 91.13,203.56 91.53,203.86 91.92,204.21 92.32,204.6 92.72,205.04 93.11,205.51 93.51,206.02 93.91,206.57 94.31,207.16 94.7,207.77 95.1,208.41 95.5,209.06 95.89,209.72 96.29,210.38 96.69,211.04 97.08,211.69 97.48,212.32 97.88,212.92 98.27,213.49 98.67,214.02 99.07,214.51 99.46,214.96 99.86,215.36 100.26,215.7 100.65,216 101.05,216.24 101.45,216.45 101.84,216.62 102.24,216.77 102.64,216.89 103.03,217 103.43,217.11 103.83,217.22 104.22,217.34 104.62,217.47 105.02,217.63 105.41,217.8 105.81,218 106.21,218.22 106.6,218.46 107,218.72 107.4,218.99 107.79,219.27 108.19,219.55 108.59,219.84 108.98,220.13 109.38,220.42 109.78,220.7 110.17,220.99 110.57,221.27 110.97,221.55 111.36,221.83 111.76,222.11 112.16,222.39 112.55,222.66 112.95,222.94 113.35,223.2 113.74,223.45 114.14,223.68 114.54,223.9 114.93,224.09 115.33,224.25 115.73,224.37 116.12,224.46 116.52,224.5 116.92,224.49 117.31,224.44 117.71,224.35 118.11,224.22 118.5,224.05 118.9,223.85 119.3,223.62 119.69,223.37 120.09,223.12 120.49,222.87 120.88,222.63 121.28,222.4 121.68,222.2 122.07,222.04 122.47,221.91 122.87,221.83 123.26,221.8 123.66,221.81 124.06,221.87 124.45,221.98 124.85,222.12 125.25,222.29 125.64,222.5 126.04,222.72 126.44,222.96 126.83,223.2 127.23,223.44 127.63,223.67 128.02,223.88 128.42,224.08 128.82,224.26 129.21,224.42 129.61,224.55 130.01,224.66 130.4,224.75 130.8,224.82 131.2,224.87 131.59,224.91 131.99,224.93 132.39,224.95 132.78,224.96 133.18,224.96 133.58,224.96 133.97,224.95 134.37,224.94 134.77,224.93 135.16,224.92 135.56,224.9 135.96,224.88 136.35,224.85 136.75,224.82 137.15,224.78 137.54,224.73 137.94,224.67 138.34,224.6 138.73,224.52 139.13,224.42 139.53,224.31 139.92,224.19 140.32,224.06 140.72,223.91 141.11,223.76 141.51,223.59 141.91,223.43 142.3,223.28 142.7,223.13 143.1,223 143.49,222.89 143.89,222.81 144.29,222.77 144.68,222.77 145.08,222.82 145.48,222.92 145.87,223.07 146.27,223.28 146.67,223.54 147.06,223.84 147.46,224.19 147.86,224.58 148.25,225 148.65,225.44 149.05,225.9 149.44,226.35 149.84,226.79 150.24,227.22 150.63,227.62 151.03,227.99 151.43,228.31 151.82,228.59 152.22,228.82 152.62,228.99 153.01,229.11 153.41,229.17 153.81,229.18 154.2,229.14 154.6,229.04 155,228.9 155.39,228.73 155.79,228.51 156.19,228.27 156.58,227.99 156.98,227.69 157.38,227.37 157.77,227.01 158.17,226.62 158.57,226.2 158.96,225.73 159.36,225.2 159.76,224.6 160.15,223.92 160.55,223.12 160.95,222.17 161.34,221.08 161.74,219.81 162.14,218.35 162.53,216.69 162.93,214.8 163.33,212.67 163.72,210.28 164.12,207.62 164.52,204.72 164.91,201.57 165.31,198.19 165.71,194.61 166.1,190.82 166.5,186.86 166.9,182.75 167.29,178.51 167.69,174.18 168.09,169.81 168.48,165.41 168.88,161.01 169.28,156.65 169.68,152.35 170.07,148.15 170.47,144.07 170.87,140.13 171.26,136.34 171.66,132.72 172.06,129.28 172.45,126.03 172.85,122.97 173.25,120.14 173.64,117.52 174.04,115.1 174.44,112.86 174.83,110.82 175.23,108.94 175.63,107.23 176.02,105.68 176.42,104.27 176.82,102.99 177.21,101.81 177.61,100.73 178.01,99.72 178.4,98.78 178.8,97.9 179.2,97.07 179.59,96.29 179.99,95.53 180.39,94.81 180.78,94.11 181.18,93.43 181.58,92.78 181.97,92.14 182.37,91.53 182.77,90.93 183.16,90.36 183.56,89.81 183.96,89.27 184.35,88.76 184.75,88.26 185.15,87.79 185.54,87.33 185.94,86.89 186.34,86.47 186.73,86.07 187.13,85.68 187.53,85.32 187.92,84.97 188.32,84.64 188.72,84.33 189.11,84.04 189.51,83.77 189.91,83.51 190.3,83.27 190.7,83.05 191.1,82.84 191.49,82.64 191.89,82.45 192.29,82.27 192.68,82.08 193.08,81.9 193.48,81.72 193.87,81.53 194.27,81.33 194.67,81.13 195.06,80.92 195.46,80.7 195.86,80.46 196.25,80.22 196.65,79.97 197.05,79.72 197.44,79.45 197.84,79.19 198.24,78.92 198.63,78.65 199.03,78.38 199.43,78.11 199.82,77.85 200.22,77.59 200.62,77.34 201.01,77.09 201.41,76.85 201.81,76.61 202.2,76.38 202.6,76.15 203,75.93 203.39,75.71 203.79,75.5 204.19,75.29 204.58,75.08 204.98,74.88 205.38,74.67 205.77,74.48 206.17,74.28 206.57,74.09 206.96,73.91 207.36,73.72 207.76,73.55 208.15,73.37 208.55,73.2 208.95,73.03 209.34,72.87 209.74,72.71 210.14,72.55 210.53,72.39 210.93,72.24 211.33,72.08 211.72,71.92 212.12,71.77 212.52,71.61 212.91,71.45 213.31,71.29 213.71,71.13 214.1,70.97 214.5,70.81 214.9,70.66 215.29,70.5 215.69,70.35 216.09,70.2 216.48,70.05 216.88,69.91 217.28,69.77 217.67,69.64 218.07,69.51 218.47,69.38 218.86,69.26 219.26,69.14 219.66,69.02 220.05,68.91 220.45,68.79 220.85,68.68 221.24,68.56 221.64,68.45 222.04,68.33 222.43,68.22 222.83,68.11 223.23,67.99 223.62,67.88 224.02,67.76 224.42,67.65 224.81,67.54 225.21,67.42 225.61,67.31 226,67.19 226.4,67.08 226.8,66.96 227.19,66.84 227.59,66.72 227.99,66.6 228.38,66.47 228.78,66.33 229.18,66.2 229.57,66.06 229.97,65.91 230.37,65.76 230.76,65.61 231.16,65.46 231.56,65.31 231.95,65.15 232.35,65 232.75,64.86 233.14,64.72 233.54,64.58 233.94,64.45 234.33,64.34 234.73,64.23 235.13,64.13 235.52,64.04 235.92,63.97 236.32,63.91 236.71,63.85 237.11,63.81 237.51,63.78 237.9,63.75 238.3,63.73 238.7,63.71 239.09,63.7 239.49,63.69 239.89,63.67 240.28,63.66 240.68,63.63 241.08,63.6 241.47,63.57 241.87,63.52 242.27,63.47 242.66,63.4 243.06,63.31 243.46,63.22 243.85,63.1 244.25,62.98 244.65,62.83 245.05,62.67 245.44,62.49 245.84,62.29 246.24,62.07 246.63,61.83 247.03,61.56 247.43,61.28 247.82,60.98 248.22,60.67 248.62,60.33 249.01,59.99 249.41,59.63 249.81,59.26 250.2,58.9 250.6,58.53 251,58.16 251.39,57.81 251.79,57.46 252.19,57.13 252.58,56.82 252.98,56.52 253.38,56.25 253.77,56 254.17,55.78 254.57,55.58 254.96,55.39 255.36,55.24 255.76,55.1 256.15,54.99 256.55,54.89 256.95,54.81 257.34,54.74 257.74,54.69 258.14,54.64 258.53,54.61 258.93,54.58 259.33,54.56 259.72,54.54 260.12,54.53 260.52,54.52 260.91,54.51 261.31,54.5 261.71,54.5" stroke-dasharray="none" stroke="rgb(77,175,74)" stroke-width="0.75" opacity="1" stroke-opacity="1" fill="none" class="aqm7" onclick="plotObjRespond('click', 7, 'dens')" onmouseover="plotObjRespond('show', 7, 'dens')" onmouseout="plotObjRespond('hide', 7, 'dens')"/>
          </g>
          <g id="Fig:densplot_01.xyplot.lines.group.8.panel.1.1.1">
            <polyline id="Fig:densplot_01.xyplot.lines.group.8.panel.1.1.1.1" points="59.71,54.52 60.11,54.54 60.5,54.56 60.9,54.59 61.29,54.63 61.69,54.68 62.08,54.76 62.48,54.86 62.88,54.99 63.27,55.17 63.67,55.39 64.06,55.67 64.46,56.04 64.85,56.51 65.25,57.09 65.64,57.8 66.04,58.66 66.44,59.7 66.83,60.93 67.23,62.38 67.62,64.1 68.02,66.1 68.41,68.38 68.81,70.95 69.2,73.84 69.6,77.03 69.99,80.54 70.39,84.36 70.79,88.52 71.18,92.94 71.58,97.61 71.97,102.5 72.37,107.55 72.76,112.74 73.16,118.02 73.55,123.35 73.95,128.67 74.34,133.93 74.74,139.08 75.14,144.1 75.53,148.95 75.93,153.59 76.32,158.01 76.72,162.17 77.11,166.03 77.51,169.62 77.9,172.94 78.3,175.99 78.7,178.77 79.09,181.3 79.49,183.58 79.88,185.62 80.28,187.42 80.67,189.03 81.07,190.47 81.46,191.75 81.86,192.89 82.25,193.91 82.65,194.83 83.05,195.66 83.44,196.43 83.84,197.14 84.23,197.83 84.63,198.5 85.02,199.16 85.42,199.82 85.81,200.48 86.21,201.16 86.6,201.86 87,202.57 87.4,203.29 87.79,204.02 88.19,204.75 88.58,205.48 88.98,206.2 89.37,206.9 89.77,207.57 90.16,208.22 90.56,208.83 90.96,209.41 91.35,209.94 91.75,210.43 92.14,210.89 92.54,211.29 92.93,211.65 93.33,211.98 93.72,212.28 94.12,212.56 94.51,212.81 94.91,213.04 95.31,213.26 95.7,213.47 96.1,213.68 96.49,213.88 96.89,214.08 97.28,214.28 97.68,214.47 98.07,214.67 98.47,214.86 98.86,215.05 99.26,215.22 99.66,215.38 100.05,215.53 100.45,215.65 100.84,215.76 101.24,215.84 101.63,215.89 102.03,215.92 102.42,215.93 102.82,215.92 103.22,215.9 103.61,215.86 104.01,215.82 104.4,215.77 104.8,215.73 105.19,215.69 105.59,215.67 105.98,215.66 106.38,215.67 106.77,215.7 107.17,215.74 107.57,215.8 107.96,215.88 108.36,215.96 108.75,216.05 109.15,216.14 109.54,216.23 109.94,216.32 110.33,216.4 110.73,216.48 111.12,216.55 111.52,216.62 111.92,216.68 112.31,216.74 112.71,216.8 113.1,216.86 113.5,216.94 113.89,217.02 114.29,217.11 114.68,217.22 115.08,217.34 115.48,217.48 115.87,217.64 116.27,217.8 116.66,217.98 117.06,218.16 117.45,218.35 117.85,218.54 118.24,218.72 118.64,218.9 119.03,219.06 119.43,219.22 119.83,219.36 120.22,219.48 120.62,219.58 121.01,219.67 121.41,219.75 121.8,219.81 122.2,219.86 122.59,219.9 122.99,219.94 123.38,219.98 123.78,220.02 124.18,220.07 124.57,220.12 124.97,220.18 125.36,220.25 125.76,220.32 126.15,220.41 126.55,220.5 126.94,220.6 127.34,220.7 127.73,220.8 128.13,220.91 128.53,221.01 128.92,221.1 129.32,221.19 129.71,221.28 130.11,221.36 130.5,221.42 130.9,221.49 131.29,221.54 131.69,221.59 132.09,221.63 132.48,221.67 132.88,221.71 133.27,221.75 133.67,221.79 134.06,221.83 134.46,221.87 134.85,221.91 135.25,221.96 135.64,222.02 136.04,222.08 136.44,222.14 136.83,222.21 137.23,222.28 137.62,222.36 138.02,222.44 138.41,222.53 138.81,222.62 139.2,222.71 139.6,222.81 139.99,222.92 140.39,223.03 140.79,223.14 141.18,223.26 141.58,223.39 141.97,223.52 142.37,223.66 142.76,223.81 143.16,223.96 143.55,224.11 143.95,224.28 144.35,224.44 144.74,224.61 145.14,224.79 145.53,224.97 145.93,225.15 146.32,225.34 146.72,225.53 147.11,225.73 147.51,225.93 147.9,226.14 148.3,226.36 148.7,226.59 149.09,226.82 149.49,227.06 149.88,227.31 150.28,227.57 150.67,227.84 151.07,228.1 151.46,228.37 151.86,228.63 152.25,228.89 152.65,229.13 153.05,229.35 153.44,229.55 153.84,229.72 154.23,229.85 154.63,229.95 155.02,230 155.42,229.99 155.81,229.94 156.21,229.83 156.61,229.66 157,229.43 157.4,229.14 157.79,228.77 158.19,228.33 158.58,227.81 158.98,227.22 159.37,226.53 159.77,225.75 160.16,224.86 160.56,223.86 160.96,222.73 161.35,221.43 161.75,219.98 162.14,218.36 162.54,216.56 162.93,214.57 163.33,212.38 163.72,209.97 164.12,207.32 164.51,204.44 164.91,201.35 165.31,198.05 165.7,194.54 166.1,190.85 166.49,186.99 166.89,182.98 167.28,178.82 167.68,174.58 168.07,170.26 168.47,165.92 168.87,161.57 169.26,157.24 169.66,152.97 170.05,148.78 170.45,144.72 170.84,140.79 171.24,137.02 171.63,133.42 172.03,129.99 172.42,126.75 172.82,123.71 173.22,120.85 173.61,118.22 174.01,115.77 174.4,113.49 174.8,111.38 175.19,109.42 175.59,107.61 175.98,105.94 176.38,104.39 176.77,102.96 177.17,101.64 177.57,100.41 177.96,99.26 178.36,98.18 178.75,97.18 179.15,96.24 179.54,95.36 179.94,94.55 180.33,93.78 180.73,93.06 181.13,92.37 181.52,91.73 181.92,91.12 182.31,90.55 182.71,90 183.1,89.48 183.5,88.98 183.89,88.49 184.29,88.03 184.68,87.58 185.08,87.14 185.48,86.72 185.87,86.31 186.27,85.91 186.66,85.53 187.06,85.16 187.45,84.8 187.85,84.46 188.24,84.14 188.64,83.83 189.03,83.54 189.43,83.26 189.83,83 190.22,82.76 190.62,82.53 191.01,82.31 191.41,82.11 191.8,81.92 192.2,81.73 192.59,81.56 192.99,81.39 193.39,81.23 193.78,81.07 194.18,80.91 194.57,80.75 194.97,80.59 195.36,80.43 195.76,80.27 196.15,80.11 196.55,79.94 196.94,79.77 197.34,79.6 197.74,79.43 198.13,79.25 198.53,79.07 198.92,78.89 199.32,78.7 199.71,78.51 200.11,78.32 200.5,78.13 200.9,77.94 201.29,77.75 201.69,77.55 202.09,77.35 202.48,77.16 202.88,76.96 203.27,76.76 203.67,76.55 204.06,76.35 204.46,76.15 204.85,75.94 205.25,75.73 205.65,75.52 206.04,75.31 206.44,75.1 206.83,74.89 207.23,74.68 207.62,74.46 208.02,74.25 208.41,74.04 208.81,73.83 209.2,73.62 209.6,73.41 210,73.2 210.39,72.99 210.79,72.78 211.18,72.58 211.58,72.38 211.97,72.18 212.37,71.98 212.76,71.79 213.16,71.6 213.55,71.42 213.95,71.24 214.35,71.07 214.74,70.9 215.14,70.74 215.53,70.59 215.93,70.45 216.32,70.31 216.72,70.18 217.11,70.06 217.51,69.95 217.91,69.84 218.3,69.73 218.7,69.63 219.09,69.53 219.49,69.43 219.88,69.34 220.28,69.24 220.67,69.15 221.07,69.06 221.46,68.97 221.86,68.88 222.26,68.79 222.65,68.7 223.05,68.62 223.44,68.53 223.84,68.45 224.23,68.37 224.63,68.29 225.02,68.22 225.42,68.14 225.81,68.06 226.21,67.97 226.61,67.89 227,67.8 227.4,67.71 227.79,67.61 228.19,67.5 228.58,67.39 228.98,67.28 229.37,67.16 229.77,67.03 230.17,66.91 230.56,66.78 230.96,66.64 231.35,66.51 231.75,66.38 232.14,66.25 232.54,66.12 232.93,65.99 233.33,65.87 233.72,65.74 234.12,65.62 234.52,65.51 234.91,65.39 235.31,65.28 235.7,65.17 236.1,65.06 236.49,64.95 236.89,64.84 237.28,64.73 237.68,64.63 238.07,64.52 238.47,64.42 238.87,64.32 239.26,64.22 239.66,64.12 240.05,64.02 240.45,63.93 240.84,63.83 241.24,63.74 241.63,63.64 242.03,63.54 242.43,63.44 242.82,63.34 243.22,63.22 243.61,63.1 244.01,62.97 244.4,62.82 244.8,62.66 245.19,62.48 245.59,62.28 245.98,62.07 246.38,61.83 246.78,61.58 247.17,61.31 247.57,61.02 247.96,60.71 248.36,60.38 248.75,60.05 249.15,59.7 249.54,59.35 249.94,58.99 250.33,58.63 250.73,58.27 251.13,57.92 251.52,57.59 251.92,57.26 252.31,56.95 252.71,56.66 253.1,56.38 253.5,56.13 253.89,55.9 254.29,55.69 254.69,55.5 255.08,55.34 255.48,55.19 255.87,55.07 256.27,54.96 256.66,54.87 257.06,54.79 257.45,54.73 257.85,54.68 258.24,54.64 258.64,54.6 259.04,54.58 259.43,54.56 259.83,54.54 260.22,54.53 260.62,54.52 261.01,54.51 261.41,54.51 261.8,54.5" stroke-dasharray="none" stroke="rgb(77,175,74)" stroke-width="0.75" opacity="1" stroke-opacity="1" fill="none" class="aqm8" onclick="plotObjRespond('click', 8, 'dens')" onmouseover="plotObjRespond('show', 8, 'dens')" onmouseout="plotObjRespond('hide', 8, 'dens')"/>
          </g>
          <g id="Fig:densplot_01.xyplot.lines.group.9.panel.1.1.1">
            <polyline id="Fig:densplot_01.xyplot.lines.group.9.panel.1.1.1.1" points="59.12,54.51 59.51,54.52 59.91,54.53 60.31,54.55 60.7,54.58 61.1,54.62 61.49,54.67 61.89,54.74 62.29,54.83 62.68,54.95 63.08,55.1 63.48,55.31 63.87,55.58 64.27,55.92 64.67,56.34 65.06,56.87 65.46,57.52 65.86,58.31 66.25,59.26 66.65,60.42 67.05,61.79 67.44,63.4 67.84,65.26 68.23,67.39 68.63,69.81 69.03,72.52 69.42,75.55 69.82,78.92 70.22,82.62 70.61,86.61 71.01,90.88 71.41,95.41 71.8,100.17 72.2,105.13 72.6,110.25 72.99,115.5 73.39,120.82 73.79,126.15 74.18,131.45 74.58,136.68 74.98,141.79 75.37,146.76 75.77,151.53 76.16,156.05 76.56,160.32 76.96,164.33 77.35,168.07 77.75,171.52 78.15,174.7 78.54,177.6 78.94,180.23 79.34,182.57 79.73,184.66 80.13,186.54 80.53,188.21 80.92,189.7 81.32,191.01 81.72,192.17 82.11,193.19 82.51,194.07 82.9,194.85 83.3,195.54 83.7,196.15 84.09,196.69 84.49,197.17 84.89,197.6 85.28,197.98 85.68,198.32 86.08,198.65 86.47,198.95 86.87,199.24 87.27,199.53 87.66,199.82 88.06,200.12 88.46,200.43 88.85,200.77 89.25,201.13 89.64,201.51 90.04,201.93 90.44,202.37 90.83,202.84 91.23,203.33 91.63,203.85 92.02,204.38 92.42,204.92 92.82,205.46 93.21,205.99 93.61,206.5 94.01,206.99 94.4,207.45 94.8,207.88 95.2,208.26 95.59,208.6 95.99,208.9 96.39,209.16 96.78,209.39 97.18,209.58 97.57,209.75 97.97,209.9 98.37,210.03 98.76,210.17 99.16,210.31 99.56,210.47 99.95,210.64 100.35,210.82 100.75,211.03 101.14,211.27 101.54,211.52 101.94,211.8 102.33,212.08 102.73,212.38 103.13,212.68 103.52,212.99 103.92,213.29 104.31,213.58 104.71,213.86 105.11,214.12 105.5,214.36 105.9,214.59 106.3,214.79 106.69,214.98 107.09,215.16 107.49,215.31 107.88,215.46 108.28,215.61 108.68,215.75 109.07,215.89 109.47,216.05 109.87,216.21 110.26,216.39 110.66,216.59 111.06,216.81 111.45,217.05 111.85,217.31 112.24,217.6 112.64,217.9 113.04,218.21 113.43,218.53 113.83,218.86 114.23,219.19 114.62,219.51 115.02,219.82 115.42,220.12 115.81,220.4 116.21,220.66 116.61,220.9 117,221.12 117.4,221.31 117.8,221.49 118.19,221.65 118.59,221.8 118.98,221.95 119.38,222.09 119.78,222.23 120.17,222.37 120.57,222.53 120.97,222.68 121.36,222.85 121.76,223.03 122.16,223.21 122.55,223.41 122.95,223.61 123.35,223.81 123.74,224.03 124.14,224.24 124.54,224.47 124.93,224.69 125.33,224.93 125.73,225.17 126.12,225.41 126.52,225.67 126.91,225.94 127.31,226.22 127.71,226.51 128.1,226.81 128.5,227.12 128.9,227.43 129.29,227.74 129.69,228.05 130.09,228.35 130.48,228.63 130.88,228.9 131.28,229.14 131.67,229.36 132.07,229.55 132.47,229.71 132.86,229.83 133.26,229.91 133.65,229.97 134.05,230 134.45,230 134.84,229.98 135.24,229.94 135.64,229.89 136.03,229.84 136.43,229.77 136.83,229.71 137.22,229.65 137.62,229.6 138.02,229.55 138.41,229.51 138.81,229.47 139.21,229.44 139.6,229.4 140,229.37 140.4,229.34 140.79,229.31 141.19,229.27 141.58,229.22 141.98,229.16 142.38,229.1 142.77,229.03 143.17,228.95 143.57,228.86 143.96,228.76 144.36,228.66 144.76,228.55 145.15,228.43 145.55,228.3 145.95,228.17 146.34,228.02 146.74,227.88 147.14,227.72 147.53,227.56 147.93,227.39 148.32,227.2 148.72,227.01 149.12,226.81 149.51,226.6 149.91,226.38 150.31,226.15 150.7,225.92 151.1,225.68 151.5,225.44 151.89,225.2 152.29,224.97 152.69,224.74 153.08,224.53 153.48,224.33 153.88,224.15 154.27,223.99 154.67,223.85 155.07,223.74 155.46,223.65 155.86,223.57 156.25,223.5 156.65,223.44 157.05,223.37 157.44,223.28 157.84,223.16 158.24,223 158.63,222.77 159.03,222.47 159.43,222.08 159.82,221.58 160.22,220.96 160.62,220.19 161.01,219.25 161.41,218.14 161.81,216.84 162.2,215.34 162.6,213.64 162.99,211.73 163.39,209.59 163.79,207.21 164.18,204.59 164.58,201.74 164.98,198.68 165.37,195.42 165.77,191.96 166.17,188.32 166.56,184.51 166.96,180.56 167.36,176.48 167.75,172.32 168.15,168.11 168.55,163.86 168.94,159.61 169.34,155.38 169.74,151.2 170.13,147.11 170.53,143.12 170.92,139.26 171.32,135.54 171.72,131.97 172.11,128.57 172.51,125.34 172.91,122.29 173.3,119.45 173.7,116.8 174.1,114.32 174.49,112.02 174.89,109.88 175.29,107.9 175.68,106.07 176.08,104.38 176.48,102.83 176.87,101.4 177.27,100.08 177.66,98.84 178.06,97.7 178.46,96.63 178.85,95.63 179.25,94.7 179.65,93.84 180.04,93.03 180.44,92.28 180.84,91.58 181.23,90.93 181.63,90.32 182.03,89.76 182.42,89.24 182.82,88.76 183.22,88.33 183.61,87.92 184.01,87.55 184.41,87.2 184.8,86.88 185.2,86.57 185.59,86.28 185.99,86 186.39,85.72 186.78,85.45 187.18,85.18 187.58,84.91 187.97,84.63 188.37,84.35 188.77,84.06 189.16,83.77 189.56,83.47 189.96,83.17 190.35,82.87 190.75,82.57 191.15,82.27 191.54,81.97 191.94,81.67 192.33,81.38 192.73,81.1 193.13,80.82 193.52,80.56 193.92,80.3 194.32,80.05 194.71,79.81 195.11,79.58 195.51,79.36 195.9,79.16 196.3,78.96 196.7,78.77 197.09,78.59 197.49,78.42 197.89,78.26 198.28,78.1 198.68,77.95 199.08,77.81 199.47,77.66 199.87,77.52 200.26,77.38 200.66,77.23 201.06,77.08 201.45,76.93 201.85,76.77 202.25,76.6 202.64,76.42 203.04,76.24 203.44,76.05 203.83,75.86 204.23,75.66 204.63,75.47 205.02,75.27 205.42,75.08 205.82,74.89 206.21,74.71 206.61,74.54 207,74.37 207.4,74.22 207.8,74.08 208.19,73.95 208.59,73.82 208.99,73.71 209.38,73.6 209.78,73.5 210.18,73.4 210.57,73.3 210.97,73.21 211.37,73.11 211.76,73.01 212.16,72.9 212.56,72.78 212.95,72.65 213.35,72.52 213.74,72.37 214.14,72.22 214.54,72.05 214.93,71.87 215.33,71.69 215.73,71.5 216.12,71.3 216.52,71.1 216.92,70.9 217.31,70.7 217.71,70.5 218.11,70.3 218.5,70.11 218.9,69.92 219.3,69.74 219.69,69.57 220.09,69.41 220.49,69.25 220.88,69.11 221.28,68.97 221.67,68.84 222.07,68.71 222.47,68.6 222.86,68.49 223.26,68.39 223.66,68.3 224.05,68.21 224.45,68.13 224.85,68.05 225.24,67.97 225.64,67.9 226.04,67.84 226.43,67.77 226.83,67.71 227.23,67.65 227.62,67.58 228.02,67.52 228.41,67.45 228.81,67.38 229.21,67.3 229.6,67.23 230,67.15 230.4,67.06 230.79,66.98 231.19,66.89 231.59,66.81 231.98,66.72 232.38,66.64 232.78,66.55 233.17,66.47 233.57,66.39 233.97,66.31 234.36,66.23 234.76,66.15 235.16,66.08 235.55,66 235.95,65.92 236.34,65.83 236.74,65.75 237.14,65.66 237.53,65.56 237.93,65.46 238.33,65.36 238.72,65.24 239.12,65.12 239.52,64.99 239.91,64.86 240.31,64.71 240.71,64.57 241.1,64.41 241.5,64.25 241.9,64.09 242.29,63.92 242.69,63.75 243.08,63.57 243.48,63.4 243.88,63.22 244.27,63.03 244.67,62.84 245.07,62.65 245.46,62.45 245.86,62.24 246.26,62.02 246.65,61.8 247.05,61.56 247.45,61.3 247.84,61.04 248.24,60.75 248.64,60.45 249.03,60.14 249.43,59.82 249.83,59.48 250.22,59.14 250.62,58.79 251.01,58.44 251.41,58.09 251.81,57.75 252.2,57.42 252.6,57.1 253,56.79 253.39,56.51 253.79,56.24 254.19,55.99 254.58,55.77 254.98,55.57 255.38,55.4 255.77,55.24 256.17,55.11 256.57,54.99 256.96,54.89 257.36,54.81 257.75,54.74 258.15,54.69 258.55,54.64 258.94,54.61 259.34,54.58 259.74,54.56 260.13,54.54 260.53,54.53 260.93,54.52 261.32,54.51 261.72,54.51" stroke-dasharray="none" stroke="rgb(77,175,74)" stroke-width="0.75" opacity="1" stroke-opacity="1" fill="none" class="aqm9" onclick="plotObjRespond('click', 9, 'dens')" onmouseover="plotObjRespond('show', 9, 'dens')" onmouseout="plotObjRespond('hide', 9, 'dens')"/>
          </g>
        </g>
        <g id="Fig:densplot_01.panel.1.1.off.vp.2">
          <g id="Fig:densplot_01.border.panel.1.1.1">
            <rect id="Fig:densplot_01.border.panel.1.1.1.1" x="44.8" y="42.19" width="231.2" height="200.52" transform="" stroke="rgb(0,0,0)" stroke-dasharray="none" stroke-width="0.75" opacity="1" fill="none" stroke-opacity="1" fill-opacity="0"/>
          </g>
        </g>
        <g id="Fig:densplot_01..1"/>
      </g>
    </g>
  </g>
</svg>